<?xml version="1.0" encoding="utf-8"?>
<!-- Generator: Adobe Illustrator 22.0.0, SVG Export Plug-In . SVG Version: 6.00 Build 0)  -->
<svg version="1.1" id="Layer_1" xmlns="http://www.w3.org/2000/svg" xmlns:xlink="http://www.w3.org/1999/xlink" x="0px" y="0px"
	 viewBox="0 0 281.304 275.509" style="enable-background:new 0 0 281.304 275.509;" xml:space="preserve">
<style type="text/css">
	.st0{fill:none;stroke:#FFFFFF;stroke-width:0.0099;stroke-miterlimit:10;}
	.st1{fill:none;stroke:#FFFFFF;stroke-width:0.0103;stroke-miterlimit:10;}
	.st2{fill:none;stroke:#FFFFFF;stroke-width:0.0107;stroke-miterlimit:10;}
	.st3{fill:none;stroke:#FFFFFF;stroke-width:0.0112;stroke-miterlimit:10;}
	.st4{fill:none;stroke:#FFFFFF;stroke-width:0.0116;stroke-miterlimit:10;}
	.st5{fill:none;stroke:#FFFFFF;stroke-width:0.0121;stroke-miterlimit:10;}
	.st6{fill:none;stroke:#FFFFFF;stroke-width:0.0127;stroke-miterlimit:10;}
	.st7{fill:none;stroke:#FFFFFF;stroke-width:0.0132;stroke-miterlimit:10;}
	.st8{fill:none;stroke:#FFFFFF;stroke-width:0.0138;stroke-miterlimit:10;}
	.st9{fill:none;stroke:#FFFFFF;stroke-width:0.0143;stroke-miterlimit:10;}
	.st10{fill:none;stroke:#FFFFFF;stroke-width:0.015;stroke-miterlimit:10;}
	.st11{fill:none;stroke:#FFFFFF;stroke-width:0.0156;stroke-miterlimit:10;}
	.st12{fill:none;stroke:#FFFFFF;stroke-width:0.0163;stroke-miterlimit:10;}
	.st13{fill:none;stroke:#FFFFFF;stroke-width:0.017;stroke-miterlimit:10;}
	.st14{fill:none;stroke:#FFFFFF;stroke-width:0.0177;stroke-miterlimit:10;}
	.st15{fill:none;stroke:#FFFFFF;stroke-width:0.0184;stroke-miterlimit:10;}
	.st16{fill:none;stroke:#FFFFFF;stroke-width:0.0192;stroke-miterlimit:10;}
	.st17{fill:none;stroke:#FFFFFF;stroke-width:0.02;stroke-miterlimit:10;}
	.st18{fill:none;stroke:#FFFFFF;stroke-width:0.0209;stroke-miterlimit:10;}
	.st19{fill:none;stroke:#FFFFFF;stroke-width:0.0218;stroke-miterlimit:10;}
	.st20{fill:none;stroke:#FFFFFF;stroke-width:0.0227;stroke-miterlimit:10;}
	.st21{fill:none;stroke:#FFFFFF;stroke-width:0.0237;stroke-miterlimit:10;}
	.st22{fill:none;stroke:#FFFFFF;stroke-width:0.0247;stroke-miterlimit:10;}
	.st23{fill:none;stroke:#FFFFFF;stroke-width:0.0257;stroke-miterlimit:10;}
	.st24{fill:none;stroke:#FFFFFF;stroke-width:0.0268;stroke-miterlimit:10;}
	.st25{fill:none;stroke:#FFFFFF;stroke-width:0.028;stroke-miterlimit:10;}
	.st26{fill:none;stroke:#FFFFFF;stroke-width:0.0291;stroke-miterlimit:10;}
	.st27{fill:none;stroke:#FFFFFF;stroke-width:0.0304;stroke-miterlimit:10;}
	.st28{fill:none;stroke:#FFFFFF;stroke-width:0.0317;stroke-miterlimit:10;}
	.st29{fill:none;stroke:#FFFFFF;stroke-width:0.033;stroke-miterlimit:10;}
	.st30{fill:none;stroke:#FFFFFF;stroke-width:0.0344;stroke-miterlimit:10;}
	.st31{fill:none;stroke:#FFFFFF;stroke-width:0.0359;stroke-miterlimit:10;}
	.st32{fill:none;stroke:#FFFFFF;stroke-width:0.0374;stroke-miterlimit:10;}
	.st33{fill:none;stroke:#FFFFFF;stroke-width:0.039;stroke-miterlimit:10;}
	.st34{fill:none;stroke:#FFFFFF;stroke-width:0.0407;stroke-miterlimit:10;}
	.st35{fill:none;stroke:#FFFFFF;stroke-width:0.0424;stroke-miterlimit:10;}
	.st36{fill:none;stroke:#FFFFFF;stroke-width:0.0442;stroke-miterlimit:10;}
	.st37{fill:none;stroke:#FFFFFF;stroke-width:0.0461;stroke-miterlimit:10;}
	.st38{fill:none;stroke:#FFFFFF;stroke-width:0.0481;stroke-miterlimit:10;}
	.st39{fill:none;stroke:#FFFFFF;stroke-width:0.0501;stroke-miterlimit:10;}
	.st40{fill:none;stroke:#FFFFFF;stroke-width:0.0522;stroke-miterlimit:10;}
	.st41{fill:none;stroke:#FFFFFF;stroke-width:0.0545;stroke-miterlimit:10;}
	.st42{fill:none;stroke:#FFFFFF;stroke-width:0.0568;stroke-miterlimit:10;}
	.st43{fill:none;stroke:#FFFFFF;stroke-width:0.0592;stroke-miterlimit:10;}
	.st44{fill:none;stroke:#FFFFFF;stroke-width:0.0617;stroke-miterlimit:10;}
	.st45{fill:none;stroke:#FFFFFF;stroke-width:0.0644;stroke-miterlimit:10;}
	.st46{fill:none;stroke:#FFFFFF;stroke-width:0.0671;stroke-miterlimit:10;}
	.st47{fill:none;stroke:#FFFFFF;stroke-width:0.07;stroke-miterlimit:10;}
	.st48{fill:none;stroke:#FFFFFF;stroke-width:0.0729;stroke-miterlimit:10;}
	.st49{fill:none;stroke:#FFFFFF;stroke-width:0.076;stroke-miterlimit:10;}
	.st50{fill:none;stroke:#FFFFFF;stroke-width:0.0793;stroke-miterlimit:10;}
	.st51{fill:none;stroke:#FFFFFF;stroke-width:0.0826;stroke-miterlimit:10;}
	.st52{fill:none;stroke:#FFFFFF;stroke-width:0.0862;stroke-miterlimit:10;}
	.st53{fill:none;stroke:#FFFFFF;stroke-width:0.0898;stroke-miterlimit:10;}
	.st54{fill:none;stroke:#FFFFFF;stroke-width:0.0937;stroke-miterlimit:10;}
	.st55{fill:none;stroke:#FFFFFF;stroke-width:0.0976;stroke-miterlimit:10;}
	.st56{fill:none;stroke:#FFFFFF;stroke-width:0.1018;stroke-miterlimit:10;}
	.st57{fill:none;stroke:#FFFFFF;stroke-width:0.1061;stroke-miterlimit:10;}
	.st58{fill:none;stroke:#FFFFFF;stroke-width:0.1107;stroke-miterlimit:10;}
	.st59{fill:none;stroke:#FFFFFF;stroke-width:0.1154;stroke-miterlimit:10;}
	.st60{fill:none;stroke:#FFFFFF;stroke-width:0.1203;stroke-miterlimit:10;}
	.st61{fill:none;stroke:#FFFFFF;stroke-width:0.1254;stroke-miterlimit:10;}
	.st62{fill:none;stroke:#FFFFFF;stroke-width:0.1307;stroke-miterlimit:10;}
	.st63{fill:none;stroke:#FFFFFF;stroke-width:0.1363;stroke-miterlimit:10;}
	.st64{fill:none;stroke:#FFFFFF;stroke-width:0.1421;stroke-miterlimit:10;}
	.st65{fill:none;stroke:#FFFFFF;stroke-width:0.1482;stroke-miterlimit:10;}
	.st66{fill:none;stroke:#FFFFFF;stroke-width:0.1545;stroke-miterlimit:10;}
	.st67{fill:none;stroke:#FFFFFF;stroke-width:0.161;stroke-miterlimit:10;}
	.st68{fill:none;stroke:#FFFFFF;stroke-width:0.1679;stroke-miterlimit:10;}
	.st69{fill:none;stroke:#FFFFFF;stroke-width:0.175;stroke-miterlimit:10;}
	.st70{fill:none;stroke:#FFFFFF;stroke-width:0.1825;stroke-miterlimit:10;}
	.st71{fill:none;stroke:#FFFFFF;stroke-width:0.1903;stroke-miterlimit:10;}
	.st72{fill:none;stroke:#FFFFFF;stroke-width:0.1984;stroke-miterlimit:10;}
	.st73{fill:none;stroke:#FFFFFF;stroke-width:0.2068;stroke-miterlimit:10;}
	.st74{fill:none;stroke:#FFFFFF;stroke-width:0.2156;stroke-miterlimit:10;}
	.st75{fill:none;stroke:#FFFFFF;stroke-width:0.2248;stroke-miterlimit:10;}
	.st76{fill:none;stroke:#FFFFFF;stroke-width:0.2344;stroke-miterlimit:10;}
	.st77{fill:none;stroke:#FFFFFF;stroke-width:0.2443;stroke-miterlimit:10;}
	.st78{fill:none;stroke:#FFFFFF;stroke-width:0.2547;stroke-miterlimit:10;}
	.st79{fill:none;stroke:#FFFFFF;stroke-width:0.2656;stroke-miterlimit:10;}
	.st80{fill:none;stroke:#FFFFFF;stroke-width:0.2769;stroke-miterlimit:10;}
	.st81{fill:none;stroke:#FFFFFF;stroke-width:0.2887;stroke-miterlimit:10;}
	.st82{fill:none;stroke:#FFFFFF;stroke-width:0.301;stroke-miterlimit:10;}
	.st83{fill:none;stroke:#FFFFFF;stroke-width:0.3138;stroke-miterlimit:10;}
	.st84{fill:none;stroke:#FFFFFF;stroke-width:0.3271;stroke-miterlimit:10;}
	.st85{fill:none;stroke:#FFFFFF;stroke-width:0.3411;stroke-miterlimit:10;}
	.st86{fill:none;stroke:#FFFFFF;stroke-width:0.3556;stroke-miterlimit:10;}
	.st87{fill:none;stroke:#FFFFFF;stroke-width:0.3707;stroke-miterlimit:10;}
	.st88{fill:none;stroke:#FFFFFF;stroke-width:0.3865;stroke-miterlimit:10;}
	.st89{fill:none;stroke:#FFFFFF;stroke-width:0.403;stroke-miterlimit:10;}
	.st90{fill:none;stroke:#FFFFFF;stroke-width:0.4201;stroke-miterlimit:10;}
	.st91{fill:none;stroke:#FFFFFF;stroke-width:0.438;stroke-miterlimit:10;}
	.st92{fill:none;stroke:#FFFFFF;stroke-width:0.4566;stroke-miterlimit:10;}
	.st93{fill:none;stroke:#FFFFFF;stroke-width:0.4761;stroke-miterlimit:10;}
	.st94{fill:none;stroke:#FFFFFF;stroke-width:0.4964;stroke-miterlimit:10;}
	.st95{fill:none;stroke:#FFFFFF;stroke-width:0.5175;stroke-miterlimit:10;}
	.st96{fill:none;stroke:#FFFFFF;stroke-width:0.5395;stroke-miterlimit:10;}
	.st97{fill:none;stroke:#FFFFFF;stroke-width:0.5625;stroke-miterlimit:10;}
	.st98{fill:none;stroke:#FFFFFF;stroke-width:0.5864;stroke-miterlimit:10;}
	.st99{fill:none;stroke:#FFFFFF;stroke-width:0.6114;stroke-miterlimit:10;}
	.st100{fill:none;stroke:#FFFFFF;stroke-width:0.6374;stroke-miterlimit:10;}
</style>
<g>
	<g>
		<path class="st0" d="M142.368,136.804c0.451-0.947,0.523-1.237-0.015-2.138c-0.539-0.901-0.814-0.951-1.804-0.904
			c-0.99,0.047-1.259,0.122-1.71,1.07c-0.451,0.947-0.351,1.229,0.187,2.13c0.539,0.901,0.747,0.817,1.712,1.067
			C141.721,138.283,141.917,137.751,142.368,136.804z"/>
	</g>
	<g>
		<path class="st1" d="M142.465,136.892c0.543-0.922,0.638-1.208,0.105-2.136s-0.83-0.992-1.907-0.997
			c-1.077-0.005-1.374,0.056-1.917,0.979c-0.543,0.922-0.451,1.209,0.082,2.137s0.764,0.855,1.797,1.155
			C141.679,138.336,141.922,137.815,142.465,136.892z"/>
	</g>
	<g>
		<path class="st2" d="M142.566,136.986c0.642-0.893,0.762-1.173,0.235-2.127c-0.526-0.954-0.844-1.034-2.013-1.096
			c-1.169-0.062-1.494-0.016-2.137,0.877c-0.642,0.893-0.559,1.184-0.033,2.138c0.526,0.954,0.781,0.893,1.885,1.248
			C141.63,138.387,141.924,137.879,142.566,136.986z"/>
	</g>
	<g>
		<path class="st3" d="M142.67,137.085c0.748-0.858,0.893-1.132,0.376-2.112c-0.517-0.981-0.858-1.077-2.123-1.199
			c-1.265-0.123-1.621-0.094-2.369,0.764s-0.674,1.153-0.157,2.134s0.797,0.933,1.975,1.345
			C141.574,138.434,141.922,137.943,142.67,137.085z"/>
	</g>
	<g>
		<path class="st4" d="M142.777,137.189c0.861-0.818,1.034-1.083,0.529-2.09c-0.505-1.006-0.87-1.12-2.236-1.309
			s-1.754-0.179-2.615,0.639c-0.861,0.818-0.797,1.116-0.292,2.122c0.505,1.006,0.812,0.973,2.068,1.446
			C141.511,138.479,141.916,138.006,142.777,137.189z"/>
	</g>
	<g>
		<path class="st5" d="M142.887,137.298c0.981-0.771,1.184-1.028,0.693-2.059c-0.491-1.031-0.88-1.164-2.352-1.424
			c-1.472-0.26-1.894-0.27-2.875,0.501s-0.929,1.073-0.437,2.104c0.491,1.031,0.826,1.015,2.162,1.552
			C141.44,138.521,141.907,138.07,142.887,137.298z"/>
	</g>
	<g>
		<path class="st6" d="M143.001,137.413c1.108-0.719,1.344-0.964,0.869-2.02c-0.475-1.056-0.889-1.209-2.472-1.545
			c-1.583-0.337-2.041-0.369-3.149,0.35c-1.108,0.719-1.069,1.023-0.594,2.078c0.475,1.056,0.839,1.056,2.259,1.663
			C141.36,138.558,141.893,138.133,143.001,137.413z"/>
	</g>
	<g>
		<path class="st7" d="M143.118,137.534c1.244-0.66,1.514-0.893,1.058-1.972c-0.455-1.079-0.896-1.254-2.596-1.673
			c-1.699-0.419-2.194-0.475-3.438,0.185c-1.244,0.66-1.219,0.965-0.763,2.044c0.455,1.079,0.85,1.099,2.357,1.779
			C141.272,138.592,141.874,138.194,143.118,137.534z"/>
	</g>
	<g>
		<path class="st8" d="M143.238,137.661c1.388-0.594,1.694-0.812,1.261-1.914s-0.902-1.299-2.723-1.806
			c-1.821-0.507-2.355-0.59-3.743,0.004c-1.388,0.594-1.378,0.9-0.945,2.002s0.86,1.142,2.457,1.9
			C141.173,138.621,141.85,138.255,143.238,137.661z"/>
	</g>
	<g>
		<path class="st9" d="M143.361,137.794c1.54-0.521,1.885-0.723,1.478-1.845c-0.407-1.123-0.905-1.344-2.852-1.946
			c-1.947-0.602-2.522-0.712-4.063-0.191s-1.547,0.827-1.14,1.95c0.407,1.123,0.869,1.185,2.559,2.026
			C141.065,138.644,141.82,138.315,143.361,137.794z"/>
	</g>
	<g>
		<path class="st10" d="M143.487,137.934c1.702-0.439,2.087-0.623,1.709-1.765c-0.378-1.142-0.906-1.39-2.986-2.093
			c-2.08-0.703-2.697-0.843-4.399-0.404s-1.726,0.745-1.348,1.887c0.378,1.142,0.876,1.229,2.663,2.157
			C140.947,138.662,141.785,138.373,143.487,137.934z"/>
	</g>
	<g>
		<path class="st11" d="M143.615,138.079c1.872-0.35,2.301-0.513,1.955-1.673c-0.345-1.161-0.904-1.435-3.122-2.246
			c-2.217-0.811-2.88-0.983-4.752-0.633s-1.916,0.654-1.571,1.814c0.345,1.161,0.881,1.273,2.768,2.294
			C140.817,138.674,141.743,138.429,143.615,138.079z"/>
	</g>
	<g>
		<path class="st12" d="M143.747,138.231c2.052-0.251,2.526-0.392,2.218-1.569s-0.9-1.481-3.261-2.406
			c-2.361-0.926-3.07-1.132-5.122-0.881c-2.052,0.251-2.117,0.552-1.808,1.729s0.884,1.318,2.874,2.436
			C140.675,138.679,141.695,138.482,143.747,138.231z"/>
	</g>
	<g>
		<path class="st13" d="M143.881,138.39c2.242-0.143,2.765-0.259,2.496-1.45s-0.893-1.526-3.402-2.574
			c-2.51-1.048-3.268-1.292-5.51-1.148c-2.242,0.143-2.329,0.441-2.061,1.632c0.268,1.192,0.884,1.362,2.981,2.583
			C140.521,138.676,141.639,138.534,143.881,138.39z"/>
	</g>
	<g>
		<path class="st14" d="M144.017,138.556c2.441-0.026,3.016-0.114,2.792-1.318c-0.223-1.204-0.882-1.57-3.547-2.748
			c-2.665-1.178-3.474-1.461-5.915-1.435c-2.441,0.026-2.553,0.318-2.33,1.522c0.223,1.204,0.882,1.407,3.089,2.735
			C140.354,138.666,141.576,138.582,144.017,138.556z"/>
	</g>
	<g>
		<path class="st15" d="M144.156,138.728c2.651,0.102,3.28,0.044,3.106-1.17c-0.174-1.214-0.868-1.614-3.694-2.93
			c-2.826-1.316-3.688-1.641-6.339-1.743c-2.651-0.102-2.79,0.184-2.616,1.398c0.174,1.214,0.878,1.451,3.197,2.893
			C140.174,138.646,141.505,138.626,144.156,138.728z"/>
	</g>
	<g>
		<path class="st16" d="M144.297,138.908c2.872,0.241,3.558,0.216,3.438-1.006c-0.12-1.221-0.85-1.657-3.843-3.119
			s-3.91-1.831-6.782-2.072c-2.872-0.241-3.038,0.038-2.919,1.259c0.12,1.221,0.87,1.495,3.306,3.056
			C139.979,138.618,141.424,138.667,144.297,138.908z"/>
	</g>
	<g>
		<path class="st17" d="M144.439,139.095c3.104,0.391,3.85,0.402,3.789-0.824c-0.061-1.226-0.829-1.7-3.994-3.316
			c-3.165-1.617-4.14-2.034-7.244-2.424c-3.104-0.391-3.3-0.121-3.24,1.105c0.061,1.226,0.859,1.538,3.414,3.225
			C139.769,138.579,141.335,138.704,144.439,139.095z"/>
	</g>
	<g>
		<path class="st18" d="M144.583,139.288c3.347,0.553,4.156,0.603,4.16-0.625c0.004-1.228-0.803-1.741-4.146-3.521
			s-4.378-2.247-7.725-2.8c-3.347-0.552-3.576-0.294-3.58,0.934c-0.004,1.228,0.845,1.581,3.523,3.399
			C139.543,138.529,141.236,138.736,144.583,139.288z"/>
	</g>
	<g>
		<path class="st19" d="M144.729,139.49c3.602,0.727,4.477,0.819,4.551-0.406c0.074-1.226-0.773-1.78-4.3-3.733
			c-3.528-1.953-4.624-2.473-8.226-3.2s-3.864-0.48-3.939,0.745c-0.074,1.226,0.828,1.623,3.63,3.579
			C139.301,138.467,141.127,138.763,144.729,139.49z"/>
	</g>
	<g>
		<path class="st20" d="M144.875,139.698c3.868,0.914,4.813,1.052,4.963-0.168c0.15-1.22-0.737-1.818-4.455-3.953
			c-3.718-2.135-4.879-2.712-8.747-3.626c-3.868-0.914-4.167-0.682-4.318,0.538s0.806,1.664,3.737,3.764
			C139.042,138.393,141.007,138.784,144.875,139.698z"/>
	</g>
	<g>
		<path class="st21" d="M145.022,139.914c4.147,1.116,5.164,1.303,5.397,0.092s-0.697-1.854-4.611-4.181
			c-3.914-2.326-5.141-2.964-9.288-4.079s-4.485-0.899-4.717,0.311c-0.232,1.211,0.78,1.704,3.842,3.955
			C138.764,138.306,140.875,138.798,145.022,139.914z"/>
	</g>
	<g>
		<path class="st22" d="M145.169,140.137c4.438,1.331,5.531,1.571,5.853,0.375c0.321-1.197-0.651-1.888-4.768-4.416
			c-4.117-2.528-5.412-3.229-9.85-4.56s-4.817-1.133-5.138,0.064c-0.321,1.197,0.75,1.743,3.946,4.15
			C138.468,138.204,140.732,138.806,145.169,140.137z"/>
	</g>
	<g>
		<path class="st23" d="M145.317,140.368c4.741,1.562,5.915,1.859,6.331,0.68c0.417-1.178-0.599-1.92-4.924-4.66
			c-4.325-2.74-5.691-3.508-10.433-5.069c-4.741-1.562-5.164-1.383-5.581-0.205c-0.417,1.178,0.715,1.78,4.047,4.351
			C138.153,138.086,140.575,138.806,145.317,140.368z"/>
	</g>
	<g>
		<path class="st24" d="M145.463,140.606c5.058,1.808,6.314,2.166,6.834,1.011c0.519-1.155-0.541-1.949-5.08-4.911
			c-4.538-2.962-5.978-3.801-11.036-5.608s-5.527-1.652-6.046-0.497c-0.519,1.155,0.675,1.815,4.145,4.557
			C137.817,137.952,140.405,138.798,145.463,140.606z"/>
	</g>
	<g>
		<path class="st25" d="M145.609,140.851c5.387,2.07,6.731,2.493,7.36,1.367s-0.477-1.974-5.234-5.17
			c-4.758-3.196-6.273-4.108-11.66-6.178c-5.387-2.07-5.905-1.938-6.535-0.812c-0.629,1.126,0.63,1.847,4.24,4.768
			C137.46,137.801,140.222,138.782,145.609,140.851z"/>
	</g>
	<g>
		<path class="st26" d="M145.753,141.104c5.73,2.349,7.164,2.842,7.912,1.75c0.747-1.092-0.405-1.997-5.388-5.437
			s-6.575-4.431-12.305-6.78c-5.73-2.349-6.3-2.245-7.047-1.153c-0.747,1.092,0.578,1.878,4.332,4.983
			C137.081,137.632,140.023,138.755,145.753,141.104z"/>
	</g>
	<g>
		<path class="st27" d="M145.895,141.364c6.086,2.646,7.615,3.213,8.488,2.162s-0.326-2.015-5.539-5.712s-6.885-4.769-12.971-7.414
			c-6.086-2.646-6.71-2.572-7.584-1.521c-0.873,1.051,0.521,1.905,4.418,5.203C136.679,137.443,139.809,138.718,145.895,141.364z"/>
	</g>
	<g>
		<path class="st28" d="M146.035,141.631c6.456,2.96,8.083,3.607,9.091,2.603c1.008-1.004-0.239-2.029-5.687-5.994
			s-7.202-5.123-13.658-8.083c-6.456-2.96-7.138-2.919-8.145-1.915c-1.008,1.004,0.457,1.93,4.5,5.427
			C136.254,137.233,139.579,138.671,146.035,141.631z"/>
	</g>
	<g>
		<path class="st29" d="M146.171,141.905c6.839,3.294,8.569,4.025,9.72,3.076c1.151-0.95-0.144-2.039-5.833-6.283
			c-5.688-4.244-7.526-5.493-14.365-8.787c-6.839-3.294-7.582-3.289-8.733-2.339c-1.151,0.95,0.386,1.951,4.576,5.655
			C135.805,137.001,139.332,138.611,146.171,141.905z"/>
	</g>
	<g>
		<path class="st30" d="M146.303,142.186c7.236,3.648,9.072,4.468,10.375,3.58c1.303-0.888-0.041-2.044-5.974-6.58
			s-7.857-5.879-15.093-9.527s-8.042-3.681-9.346-2.793c-1.303,0.888,0.308,1.969,4.645,5.887
			C135.33,136.745,139.067,138.538,146.303,142.186z"/>
	</g>
	<g>
		<path class="st31" d="M146.43,142.473c7.647,4.021,9.593,4.937,11.059,4.118s0.072-2.043-6.11-6.883s-8.194-6.282-15.841-10.304
			s-8.52-4.097-9.986-3.278c-1.465,0.819,0.223,1.982,4.707,6.122C134.829,136.466,138.783,138.451,146.43,142.473z"/>
	</g>
	<g>
		<path class="st32" d="M146.552,142.766c8.072,4.416,10.132,5.432,11.769,4.691c1.637-0.741,0.194-2.037-6.24-7.194
			c-6.435-5.157-8.537-6.702-16.609-11.118c-8.072-4.416-9.016-4.537-10.653-3.796s0.129,1.991,4.761,6.36
			C134.302,136.16,138.48,138.35,146.552,142.766z"/>
	</g>
	<g>
		<path class="st33" d="M146.668,143.066c8.511,4.833,10.689,5.955,12.508,5.301s0.327-2.024-6.365-7.51
			c-6.691-5.487-8.885-7.14-17.396-11.972c-8.511-4.833-9.528-5.003-11.347-4.349c-1.819,0.654,0.026,1.995,4.807,6.6
			C133.746,135.828,138.158,138.233,146.668,143.066z"/>
	</g>
	<g>
		<path class="st34" d="M146.777,143.371c8.963,5.271,11.264,6.506,13.276,5.948c2.012-0.558,0.47-2.004-6.481-7.833
			c-6.951-5.829-9.239-7.595-18.202-12.867c-8.963-5.271-10.058-5.495-12.07-4.936c-2.012,0.558-0.085,1.994,4.842,6.843
			C133.162,135.466,137.814,138.099,146.777,143.371z"/>
	</g>
	<g>
		<path class="st35" d="M146.878,143.681c9.429,5.733,11.857,7.087,14.072,6.635c2.216-0.452,0.624-1.976-6.59-8.162
			c-7.214-6.185-9.596-8.068-19.025-13.801c-9.429-5.733-10.605-6.013-12.82-5.561s-0.205,1.987,4.866,7.087
			C132.549,135.075,137.448,137.948,146.878,143.681z"/>
	</g>
	<g>
		<path class="st36" d="M146.969,143.996c9.909,6.219,12.467,7.698,14.897,7.362c2.431-0.336,0.79-1.941-6.689-8.495
			s-9.957-8.559-19.866-14.778c-9.909-6.219-11.169-6.56-13.6-6.225c-2.431,0.336-0.336,1.973,4.879,7.332
			C131.905,134.652,137.06,137.778,146.969,143.996z"/>
	</g>
	<g>
		<path class="st37" d="M147.051,144.316c10.402,6.729,13.094,8.34,15.752,8.132c2.657-0.208,0.968-1.897-6.777-8.834
			c-7.745-6.937-10.321-9.069-20.724-15.798s-11.75-7.136-14.408-6.928c-2.657,0.208-0.477,1.953,4.879,7.577
			C131.231,134.196,136.649,137.587,147.051,144.316z"/>
	</g>
	<g>
		<path class="st38" d="M147.121,144.639c10.908,7.264,13.739,9.014,16.636,8.945s1.158-1.844-6.854-9.176
			c-8.012-7.333-10.688-9.597-21.596-16.861c-10.908-7.264-12.349-7.741-15.245-7.673c-2.896,0.068-0.629,1.925,4.865,7.822
			C130.525,133.706,136.213,137.375,147.121,144.639z"/>
	</g>
	<g>
		<path class="st39" d="M147.179,144.966c11.427,7.825,14.401,9.72,17.549,9.803c3.148,0.083,1.362-1.781-6.917-9.522
			c-8.28-7.742-11.055-10.143-22.483-17.968s-12.964-8.377-16.112-8.46c-3.148-0.083-0.792,1.89,4.836,8.066
			C129.786,133.179,135.751,137.141,147.179,144.966z"/>
	</g>
	<g>
		<path class="st40" d="M147.223,145.295c11.959,8.412,15.079,10.461,18.491,10.708c3.412,0.248,1.58-1.707-6.967-9.871
			c-8.547-8.165-11.423-10.708-23.382-19.12s-13.595-9.044-17.007-9.291c-3.412-0.248-0.967,1.846,4.79,8.308
			C129.014,132.614,135.264,136.883,147.223,145.295z"/>
	</g>
	<g>
		<path class="st41" d="M147.252,145.626c12.503,9.027,15.772,11.235,19.462,11.661s1.812-1.622-7.001-10.222
			c-8.813-8.601-11.79-11.291-24.293-20.317c-12.503-9.027-14.243-9.743-17.932-10.169c-3.69-0.426-1.155,1.793,4.727,8.547
			C128.209,132.009,134.75,136.6,147.252,145.626z"/>
	</g>
	<g>
		<path class="st42" d="M147.265,145.958c13.058,9.669,16.481,12.045,20.462,12.664c3.981,0.619,2.059-1.525-7.018-10.575
			s-12.156-11.892-25.213-21.561s-14.906-10.475-18.887-11.093s-1.356,1.73,4.645,8.783
			C127.369,131.363,134.208,136.29,147.265,145.958z"/>
	</g>
	<g>
		<path class="st43" d="M147.26,146.291c13.624,10.339,17.204,12.891,21.49,13.718c4.286,0.826,2.322-1.415-7.016-10.928
			c-9.338-9.513-12.518-12.512-26.142-22.851c-13.624-10.339-15.584-11.241-19.87-12.067s-1.57,1.656,4.542,9.014
			C126.494,130.674,133.637,135.952,147.26,146.291z"/>
	</g>
	<g>
		<path class="st44" d="M147.236,146.623c14.2,11.038,17.941,13.774,22.547,14.823s2.601-1.291-6.994-11.28
			c-9.595-9.988-12.876-13.15-27.076-24.188c-14.2-11.038-16.276-12.041-20.881-13.09c-4.605-1.049-1.798,1.572,4.418,9.24
			C125.583,129.941,133.036,135.585,147.236,146.623z"/>
	</g>
	<g>
		<path class="st45" d="M147.191,146.952c14.786,11.766,18.691,14.694,23.63,15.983c4.939,1.289,2.897-1.154-6.95-11.63
			c-9.847-10.477-13.229-13.806-28.014-25.572c-14.786-11.766-16.983-12.876-21.921-14.165c-4.939-1.289-2.041,1.476,4.27,9.458
			C124.636,129.16,132.406,135.187,147.191,146.952z"/>
	</g>
	<g>
		<path class="st46" d="M147.123,147.28c15.38,12.523,19.453,15.652,24.741,17.198s3.21-1-6.882-11.978
			c-10.092-10.978-13.574-14.479-28.954-27.003s-17.701-13.747-22.989-15.293c-5.288-1.546-2.3,1.367,4.097,9.669
			C123.653,128.331,131.744,134.756,147.123,147.28z"/>
	</g>
	<g>
		<path class="st47" d="M147.031,147.603c15.982,13.311,20.225,16.649,25.877,18.469c5.652,1.82,3.541-0.831-6.789-12.322
			s-13.91-15.17-29.892-28.481s-18.432-14.655-24.084-16.475c-5.652-1.82-2.574,1.245,3.897,9.87
			C122.633,127.452,131.049,134.292,147.031,147.603z"/>
	</g>
	<g>
		<path class="st48" d="M146.913,147.921c16.591,14.129,21.007,17.685,27.038,19.798s3.891-0.644-6.668-12.66
			s-14.236-15.877-30.827-30.007s-19.174-15.599-25.205-17.713c-6.031-2.113-2.865,1.108,3.668,10.06
			C121.576,126.521,130.322,133.791,146.913,147.921z"/>
	</g>
	<g>
		<path class="st49" d="M146.766,148.232c17.205,14.978,21.796,18.76,28.222,21.186c6.427,2.426,4.26-0.44-6.518-12.992
			c-10.778-12.552-14.55-16.601-31.754-31.579s-19.925-16.582-26.352-19.008c-6.427-2.426-3.173,0.957,3.409,10.238
			C120.481,125.535,129.561,133.254,146.766,148.232z"/>
	</g>
	<g>
		<path class="st50" d="M146.589,148.535c17.823,15.858,22.591,19.875,29.429,22.634s4.65-0.216-6.336-13.315
			c-10.985-13.099-14.849-17.339-32.672-33.197s-20.685-17.602-27.523-20.361s-3.499,0.789,3.118,10.403
			C119.349,124.494,128.766,132.677,146.589,148.535z"/>
	</g>
	<g>
		<path class="st51" d="M146.38,148.829c18.444,16.769,23.392,21.03,30.657,24.143c7.265,3.113,5.059,0.027-6.12-13.629
			s-15.132-18.093-33.576-34.862s-21.452-18.66-28.717-21.773s-3.842,0.605,2.793,10.552
			C118.179,123.395,127.936,132.059,146.38,148.829z"/>
	</g>
	<g>
		<path class="st52" d="M146.137,149.111c19.067,17.712,24.195,22.225,31.904,25.715c7.709,3.489,5.49,0.292-5.868-13.93
			s-15.396-18.86-34.462-36.571s-22.224-19.757-29.933-23.247c-7.709-3.489-4.205,0.403,2.432,10.683
			C116.972,122.236,127.07,131.399,146.137,149.111z"/>
	</g>
	<g>
		<path class="st53" d="M145.856,149.38c19.689,18.685,24.998,23.461,33.167,27.349s5.943,0.579-5.577-14.218
			s-15.639-19.64-35.327-38.325s-22.999-20.893-31.168-24.781s-4.588,0.183,2.032,10.796
			C115.727,121.015,126.167,130.695,145.856,149.38z"/>
	</g>
	<g>
		<path class="st54" d="M145.536,149.634c20.309,19.69,25.8,24.737,34.446,29.047c8.646,4.31,6.418,0.889-5.244-14.491
			s-15.858-20.431-36.166-40.121s-23.776-22.068-32.422-26.378c-8.646-4.31-4.99-0.058,1.591,10.888
			C114.446,119.731,125.227,129.944,145.536,149.634z"/>
	</g>
	<g>
		<path class="st55" d="M145.174,149.87c20.924,20.726,26.598,26.054,35.738,30.81c9.14,4.757,6.916,1.224-4.868-14.745
			c-11.784-15.969-16.051-21.233-36.975-41.959s-24.553-23.282-33.693-28.039s-5.413-0.319,1.108,10.956
			C113.128,118.382,124.25,129.145,145.174,149.87z"/>
	</g>
	<g>
		<path class="st56" d="M144.768,150.088c21.534,21.793,27.389,27.41,37.04,32.639c9.651,5.229,7.437,1.584-4.446-14.98
			c-11.883-16.564-16.215-22.044-37.748-43.837s-25.327-24.535-34.978-29.764c-9.651-5.229-5.858-0.602,0.579,10.999
			C111.775,116.966,123.235,128.296,144.768,150.088z"/>
	</g>
	<g>
		<path class="st57" d="M144.315,150.284c22.134,22.89,28.17,28.806,38.349,34.532c10.178,5.727,7.983,1.971-3.973-15.192
			s-16.347-22.862-38.481-45.752s-26.096-25.827-36.274-31.554s-6.324-0.907,0.003,11.014
			C110.386,115.48,122.181,127.394,144.315,150.284z"/>
	</g>
	<g>
		<path class="st58" d="M143.812,150.456c22.724,24.017,28.939,30.241,39.662,36.492s8.553,2.386-3.449-15.379
			c-12.001-17.765-16.443-23.687-39.167-47.703s-26.857-27.158-37.579-33.409s-6.813-1.237-0.623,10.999
			C108.963,113.924,121.088,126.439,143.812,150.456z"/>
	</g>
	<g>
		<path class="st59" d="M143.256,150.602c23.3,25.173,29.692,31.714,40.976,38.518c11.283,6.804,9.148,2.831-2.869-15.539
			c-12.017-18.369-16.501-24.515-39.801-49.688s-27.607-28.526-38.89-35.33c-11.283-6.804-7.325-1.592-1.302,10.952
			C107.507,112.296,119.956,125.429,143.256,150.602z"/>
	</g>
	<g>
		<path class="st60" d="M142.645,150.718c23.859,26.358,30.426,33.224,42.286,40.609c11.86,7.385,9.769,3.305-2.23-15.667
			s-16.517-25.345-40.376-51.703s-28.344-29.932-40.204-37.317s-7.861-1.973-2.037,10.868
			C106.019,110.594,118.785,124.36,142.645,150.718z"/>
	</g>
	<g>
		<path class="st61" d="M141.974,150.802c24.399,27.571,31.136,34.771,43.59,42.767s10.416,3.812-1.529-15.763
			c-11.945-19.575-16.487-26.174-40.885-53.745s-29.063-31.374-41.517-39.37s-8.42-2.382-2.829,10.747
			C104.501,108.816,117.575,123.231,141.974,150.802z"/>
	</g>
	<g>
		<path class="st62" d="M141.241,150.851c24.916,28.81,31.82,36.353,44.883,44.99c13.063,8.637,11.089,4.352-0.763-15.821
			s-16.407-27.001-41.322-55.811s-29.763-32.852-42.826-41.489s-9.004-2.819-3.682,10.584
			C102.954,106.961,116.326,122.041,141.241,150.851z"/>
	</g>
	<g>
		<path class="st63" d="M140.443,150.861c25.406,30.074,32.471,37.969,46.16,47.277c13.689,9.308,11.789,4.926,0.072-15.839
			s-16.273-27.823-41.679-57.897s-30.438-34.365-44.126-43.673s-9.614-3.287-4.599,10.377
			C101.38,105.028,115.037,120.787,140.443,150.861z"/>
	</g>
	<g>
		<path class="st64" d="M139.577,150.83c25.867,31.363,33.086,39.616,47.415,49.628s12.516,5.537,0.979-15.814
			c-11.538-21.351-16.081-28.637-41.948-59.999s-31.084-35.911-45.413-45.923s-10.248-3.785-5.582,10.122
			C99.782,103.015,113.71,119.467,139.577,150.83z"/>
	</g>
	<g>
		<path class="st65" d="M138.638,150.753c26.293,32.673,33.66,41.293,48.645,52.042s13.271,6.184,1.962-15.741
			c-11.309-21.925-15.826-29.439-42.12-62.112s-31.698-37.488-46.682-48.237s-10.909-4.317-6.635,9.816
			C98.162,100.921,112.344,118.08,138.638,150.753z"/>
	</g>
	<g>
		<path class="st66" d="M137.623,150.627c26.682,34.005,34.188,42.998,49.842,54.516s14.054,6.87,3.025-15.617
			c-11.029-22.487-15.504-30.227-42.186-64.232s-32.274-39.096-47.928-50.614S88.78,69.8,92.615,84.137
			C96.522,98.745,110.941,116.623,137.623,150.627z"/>
	</g>
	<g>
		<path class="st67" d="M136.528,150.449c27.028,35.355,34.664,44.729,51,57.05c16.336,12.321,14.864,7.596,4.172-15.437
			s-15.11-30.997-42.138-66.351s-32.809-40.731-49.145-53.053s-12.309-5.482-8.962,9.036
			C94.867,96.487,109.5,115.094,136.528,150.449z"/>
	</g>
	<g>
		<path class="st68" d="M135.35,150.213c27.327,36.721,35.082,46.482,52.114,59.641s15.702,8.364,5.407-15.197
			s-14.638-31.745-41.965-68.466s-33.296-42.393-50.327-55.552S87.53,64.52,90.337,79.193
			C93.198,94.144,108.023,113.492,135.35,150.213z"/>
	</g>
	<g>
		<path class="st69" d="M134.085,149.916c27.573,38.101,35.437,48.254,53.175,62.287c17.738,14.033,16.568,9.174,6.733-14.894
			c-9.835-24.068-14.083-32.468-41.656-70.568s-33.73-44.077-51.468-58.11s-13.816-6.793-11.604,8.007
			C91.519,91.718,106.511,111.815,134.085,149.916z"/>
	</g>
	<g>
		<path class="st70" d="M132.728,149.553c27.763,39.491,35.72,50.042,54.176,64.984s17.463,10.029,8.156-14.521
			s-13.44-33.16-41.202-72.652s-34.105-45.782-52.561-60.724s-14.611-7.507-13.051,7.389
			C89.836,89.207,104.966,110.062,132.728,149.553z"/>
	</g>
	<g>
		<path class="st71" d="M131.277,149.12c27.889,40.89,35.926,51.843,55.11,67.73s18.385,10.929,9.679-14.074
			c-8.705-25.003-12.702-33.818-40.591-74.708s-34.416-47.504-53.599-63.391s-15.432-8.261-14.587,6.696
			C88.151,86.612,103.388,108.23,131.277,149.12z"/>
	</g>
	<g>
		<path class="st72" d="M129.725,148.611c27.946,42.294,36.048,53.652,55.967,70.522s19.334,11.876,11.307-13.548
			c-8.027-25.424-11.864-34.437-39.81-76.73s-34.655-49.24-54.574-66.11s-16.281-9.057-16.214,5.923
			C86.47,83.932,101.779,106.317,129.725,148.611z"/>
	</g>
	<g>
		<path class="st73" d="M128.071,148.022c27.929,43.698,36.076,55.465,56.738,73.354s20.311,12.872,13.044-12.938
			c-7.267-25.81-10.919-35.01-38.848-78.709s-34.815-50.986-55.477-68.875s-17.158-9.897-17.937,5.066
			C84.798,81.167,100.142,104.323,128.071,148.022z"/>
	</g>
	<g>
		<path class="st74" d="M126.308,147.347c27.83,45.1,36.004,57.278,57.415,76.223s21.315,13.917,14.895-12.238
			c-6.42-26.155-9.86-35.534-37.69-80.634s-34.89-52.739-56.301-71.684s-18.061-10.782-19.758,4.121
			C83.14,78.319,98.478,102.247,126.308,147.347z"/>
	</g>
	<g>
		<path class="st75" d="M124.433,146.58c27.643,46.495,35.823,59.083,57.986,79.124s22.345,15.014,16.864-11.441
			c-5.48-26.455-8.682-36.001-36.324-82.496s-34.872-54.492-57.035-74.533s-18.991-11.712-21.681,3.081
			C81.502,75.388,96.79,100.086,124.433,146.58z"/>
	</g>
	<g>
		<path class="st76" d="M122.441,145.717c27.36,47.878,35.524,60.877,58.441,82.05s23.4,16.162,18.956-10.543
			c-4.444-26.705-7.376-36.406-34.736-84.284s-34.753-56.243-57.669-77.415s-19.948-12.69-23.709,1.942
			C79.891,72.376,95.081,97.839,122.441,145.717z"/>
	</g>
	<g>
		<path class="st77" d="M120.329,144.751c26.975,49.244,35.097,62.653,58.768,84.996s24.481,17.365,21.176-9.536
			s-5.935-36.742-32.91-85.987s-34.524-57.985-58.194-80.328S88.237,40.18,83.322,54.595
			C78.314,69.283,93.353,95.506,120.329,144.751z"/>
	</g>
	<g>
		<path class="st78" d="M118.09,143.675c26.479,50.589,34.532,64.404,58.955,87.955s25.585,18.622,23.529-8.415
			c-2.057-27.037-4.352-37.003-30.831-87.591s-34.176-59.712-58.598-83.263s-21.94-14.793-28.095-0.655
			C76.778,66.112,91.611,93.086,118.09,143.675z"/>
	</g>
	<g>
		<path class="st79" d="M115.722,142.483c25.865,51.905,33.82,66.123,58.991,90.92s26.713,19.936,26.018-7.172
			s-2.619-37.18-28.484-89.085s-33.7-61.419-58.87-86.216S90.404,35.01,82.918,48.806C75.291,62.864,89.857,90.578,115.722,142.483z
			"/>
	</g>
	<g>
		<path class="st80" d="M113.219,141.17c25.123,53.188,32.949,67.802,58.86,93.883s27.862,21.307,28.65-5.801
			c0.788-27.107-0.728-37.266-25.85-90.453s-33.086-63.098-58.997-89.179S91.851,32.518,82.94,45.904
			C73.861,59.544,88.096,87.982,113.219,141.17z"/>
	</g>
	<g>
		<path class="st81" d="M110.576,139.727c24.244,54.429,31.908,69.434,58.55,96.835s29.031,22.736,31.429-4.293
			s1.33-37.253-22.914-91.682s-32.324-64.743-58.966-92.144S93.563,30.106,83.13,43.007
			C72.499,56.153,86.332,85.297,110.576,139.727z"/>
	</g>
	<g>
		<path class="st82" d="M107.79,138.148c23.22,55.624,30.685,71.009,58.045,99.766s30.219,24.224,34.359-2.642
			c4.14-26.866,3.563-37.132-19.657-92.756s-31.404-66.346-58.764-95.104S95.559,27.787,83.5,40.124
			C71.213,52.695,84.571,82.524,107.79,138.148z"/>
	</g>
	<g>
		<path class="st83" d="M104.856,136.425c22.04,56.763,29.268,72.517,57.331,102.667s31.423,25.772,37.446-0.841
			s5.98-36.895-16.06-93.657s-30.313-67.899-58.376-98.049s-27.339-20.97-41.131-9.281C70.013,49.175,82.816,79.662,104.856,136.425
			z"/>
	</g>
	<g>
		<path class="st84" d="M101.769,134.551c20.695,57.838,27.645,73.95,56.39,105.527s32.643,27.381,40.694,1.12
			s8.59-36.531-12.105-94.37s-29.042-69.392-57.788-100.97s-28.483-22.372-44.118-11.421
			C68.912,45.597,81.074,76.712,101.769,134.551z"/>
	</g>
	<g>
		<path class="st85" d="M98.525,132.518c19.173,58.842,25.8,75.295,55.207,108.334s33.875,29.052,44.108,3.249
			c10.233-25.804,11.402-36.032-7.771-94.874S162.492,78.409,133.086,45.37s-29.645-23.832-47.239-13.714
			C67.919,41.966,79.352,73.675,98.525,132.518z"/>
	</g>
	<g>
		<path class="st86" d="M95.119,130.318c17.464,59.765,23.722,76.542,53.762,111.075s35.118,30.785,47.693,5.553
			c12.576-25.233,14.426-35.386-3.038-95.151s-25.905-72.163-55.945-106.696s-30.823-25.351-50.496-16.167
			C67.049,38.289,77.654,70.553,95.119,130.318z"/>
	</g>
	<g>
		<path class="st87" d="M91.547,127.942c15.557,60.597,21.395,77.679,52.039,113.736s36.368,32.581,51.454,8.041
			c15.086-24.54,17.672-34.582,2.115-95.179s-24.013-73.42-54.657-109.477s-32.015-26.929-53.892-18.788
			C66.313,34.57,75.99,67.345,91.547,127.942z"/>
	</g>
	<g>
		<path class="st88" d="M87.805,125.383c13.44,61.328,18.805,78.692,50.016,116.304s37.622,34.44,55.394,10.723
			s21.15-33.61,7.71-94.938c-13.44-61.328-21.889-74.576-53.1-112.188s-33.219-28.568-57.429-21.583
			C65.726,30.819,74.365,64.055,87.805,125.383z"/>
	</g>
	<g>
		<path class="st89" d="M83.889,122.632c11.1,61.948,15.936,79.569,47.675,118.762s38.879,36.361,59.518,13.607
			s24.869-32.457,13.77-94.404s-19.518-75.62-51.256-114.813s-34.433-30.267-61.11-24.559
			C65.302,27.042,72.789,60.684,83.889,122.632z"/>
	</g>
	<g>
		<path class="st90" d="M79.794,119.679c8.524,62.444,12.771,80.293,44.993,121.094s40.133,38.346,63.831,16.704
			s28.841-31.111,20.317-93.554c-8.524-62.444-16.884-76.538-49.106-117.338s-35.654-32.028-64.936-27.723
			C65.057,23.247,71.27,57.236,79.794,119.679z"/>
	</g>
	<g>
		<path class="st91" d="M75.518,116.517c5.7,62.804,9.295,80.852,41.95,123.283s41.382,40.394,68.336,20.021
			c26.954-20.373,33.076-29.559,27.375-92.363c-5.7-62.804-13.973-77.316-46.628-119.748s-36.879-33.85-68.909-31.084
			C65.007,19.445,69.817,53.712,75.518,116.517z"/>
	</g>
	<g>
		<path class="st92" d="M71.056,113.134c2.615,63.016,5.49,81.228,38.522,125.31s42.621,42.505,73.038,23.57
			c30.417-18.934,37.584-27.787,34.969-90.804s-10.769-77.942-43.801-122.024s-38.106-35.734-73.03-34.648
			C65.169,15.646,68.441,50.118,71.056,113.134z"/>
	</g>
	<g>
		<path class="st93" d="M66.405,109.523c-0.746,63.067,1.339,81.404,34.686,127.154s43.845,44.677,77.939,27.361
			s42.377-25.782,43.124-88.849c0.746-63.067-7.255-78.398-40.603-124.149s-39.33-37.679-77.3-38.422
			C65.56,11.86,67.151,46.456,66.405,109.523z"/>
	</g>
	<g>
		<path class="st94" d="M61.562,105.674c-4.398,62.941-3.178,81.362,30.417,128.795s45.051,46.91,83.044,31.402
			s47.466-23.529,51.864-86.47c4.398-62.941-3.416-78.671-37.01-126.104s-40.547-39.686-81.721-42.415
			C66.201,8.101,65.959,42.732,61.562,105.674z"/>
	</g>
	<g>
		<path class="st95" d="M56.524,101.576c-8.354,62.625-8.078,81.084,25.69,130.21s46.233,49.204,88.355,35.705
			s52.861-21.012,61.215-83.637s0.768-78.742-33-127.868s-41.755-41.754-86.293-46.634C67.11,4.379,64.878,38.951,56.524,101.576z"
			/>
	</g>
	<g>
		<path class="st96" d="M51.288,97.22c-12.631,62.102-13.381,80.55,20.479,131.377s47.385,51.556,93.875,40.28
			c46.49-11.276,58.574-18.217,71.205-80.319c12.631-62.102,5.313-78.594-28.546-129.42s-42.949-43.882-91.015-51.086
			C68.308,0.711,63.919,35.118,51.288,97.22z"/>
	</g>
	<g>
		<path class="st97" d="M45.853,92.596c-17.243,61.356-19.107,79.74,14.755,132.268s48.502,53.965,99.607,45.138
			c51.105-8.827,64.617-15.127,81.86-76.482s10.238-78.208-23.624-130.736s-44.123-46.069-95.888-55.78
			C69.818-2.89,63.096,31.24,45.853,92.596z"/>
	</g>
	<g>
		<path class="st98" d="M40.216,87.694c-22.207,60.369-25.276,78.63,8.492,132.859s49.578,56.43,105.553,50.289
			s71-11.724,93.207-72.093s15.562-77.565-18.206-131.794S183.988,18.64,128.352,6.234C71.662-6.407,62.424,27.325,40.216,87.694z"
			/>
	</g>
	<g>
		<path class="st99" d="M34.377,82.504c-27.539,59.124-31.909,77.2,1.66,133.122s50.605,58.947,111.713,55.745
			c61.108-3.203,77.735-7.992,105.274-67.117s21.304-76.644-12.264-132.566s-46.394-50.619-106.08-65.92
			C73.863-9.823,61.916,23.38,34.377,82.504z"/>
	</g>
	<g>
		<path class="st100" d="M28.334,77.015c-33.257,57.602-39.028,75.424-5.771,133.026s51.577,61.515,118.09,61.515
			s84.833-3.913,118.09-61.515s27.485-75.424-5.771-133.026S205.49,24.038,141.574,5.634C76.446-13.118,61.59,19.413,28.334,77.015z
			"/>
	</g>
</g>
</svg>
