<?xml version="1.0" encoding="utf-8"?>
<!-- Generator: Adobe Illustrator 22.0.0, SVG Export Plug-In . SVG Version: 6.00 Build 0)  -->
<svg version="1.1" id="Layer_1" xmlns="http://www.w3.org/2000/svg" xmlns:xlink="http://www.w3.org/1999/xlink" x="0px" y="0px"
	 viewBox="0 0 273.289 293.937" style="enable-background:new 0 0 273.289 293.937;" xml:space="preserve">
<style type="text/css">
	.st0{fill:none;stroke:#FFFFFF;stroke-width:0.0119;stroke-miterlimit:10;}
	.st1{fill:none;stroke:#FFFFFF;stroke-width:0.0123;stroke-miterlimit:10;}
	.st2{fill:none;stroke:#FFFFFF;stroke-width:0.0128;stroke-miterlimit:10;}
	.st3{fill:none;stroke:#FFFFFF;stroke-width:0.0133;stroke-miterlimit:10;}
	.st4{fill:none;stroke:#FFFFFF;stroke-width:0.0137;stroke-miterlimit:10;}
	.st5{fill:none;stroke:#FFFFFF;stroke-width:0.0142;stroke-miterlimit:10;}
	.st6{fill:none;stroke:#FFFFFF;stroke-width:0.0148;stroke-miterlimit:10;}
	.st7{fill:none;stroke:#FFFFFF;stroke-width:0.0153;stroke-miterlimit:10;}
	.st8{fill:none;stroke:#FFFFFF;stroke-width:0.0158;stroke-miterlimit:10;}
	.st9{fill:none;stroke:#FFFFFF;stroke-width:0.0164;stroke-miterlimit:10;}
	.st10{fill:none;stroke:#FFFFFF;stroke-width:0.017;stroke-miterlimit:10;}
	.st11{fill:none;stroke:#FFFFFF;stroke-width:0.0176;stroke-miterlimit:10;}
	.st12{fill:none;stroke:#FFFFFF;stroke-width:0.0183;stroke-miterlimit:10;}
	.st13{fill:none;stroke:#FFFFFF;stroke-width:0.019;stroke-miterlimit:10;}
	.st14{fill:none;stroke:#FFFFFF;stroke-width:0.0196;stroke-miterlimit:10;}
	.st15{fill:none;stroke:#FFFFFF;stroke-width:0.0204;stroke-miterlimit:10;}
	.st16{fill:none;stroke:#FFFFFF;stroke-width:0.0211;stroke-miterlimit:10;}
	.st17{fill:none;stroke:#FFFFFF;stroke-width:0.0219;stroke-miterlimit:10;}
	.st18{fill:none;stroke:#FFFFFF;stroke-width:0.0227;stroke-miterlimit:10;}
	.st19{fill:none;stroke:#FFFFFF;stroke-width:0.0235;stroke-miterlimit:10;}
	.st20{fill:none;stroke:#FFFFFF;stroke-width:0.0243;stroke-miterlimit:10;}
	.st21{fill:none;stroke:#FFFFFF;stroke-width:0.0252;stroke-miterlimit:10;}
	.st22{fill:none;stroke:#FFFFFF;stroke-width:0.0261;stroke-miterlimit:10;}
	.st23{fill:none;stroke:#FFFFFF;stroke-width:0.0271;stroke-miterlimit:10;}
	.st24{fill:none;stroke:#FFFFFF;stroke-width:0.0281;stroke-miterlimit:10;}
	.st25{fill:none;stroke:#FFFFFF;stroke-width:0.0291;stroke-miterlimit:10;}
	.st26{fill:none;stroke:#FFFFFF;stroke-width:0.0302;stroke-miterlimit:10;}
	.st27{fill:none;stroke:#FFFFFF;stroke-width:0.0313;stroke-miterlimit:10;}
	.st28{fill:none;stroke:#FFFFFF;stroke-width:0.0324;stroke-miterlimit:10;}
	.st29{fill:none;stroke:#FFFFFF;stroke-width:0.0336;stroke-miterlimit:10;}
	.st30{fill:none;stroke:#FFFFFF;stroke-width:0.0348;stroke-miterlimit:10;}
	.st31{fill:none;stroke:#FFFFFF;stroke-width:0.0361;stroke-miterlimit:10;}
	.st32{fill:none;stroke:#FFFFFF;stroke-width:0.0374;stroke-miterlimit:10;}
	.st33{fill:none;stroke:#FFFFFF;stroke-width:0.0387;stroke-miterlimit:10;}
	.st34{fill:none;stroke:#FFFFFF;stroke-width:0.0401;stroke-miterlimit:10;}
	.st35{fill:none;stroke:#FFFFFF;stroke-width:0.0416;stroke-miterlimit:10;}
	.st36{fill:none;stroke:#FFFFFF;stroke-width:0.0431;stroke-miterlimit:10;}
	.st37{fill:none;stroke:#FFFFFF;stroke-width:0.0447;stroke-miterlimit:10;}
	.st38{fill:none;stroke:#FFFFFF;stroke-width:0.0463;stroke-miterlimit:10;}
	.st39{fill:none;stroke:#FFFFFF;stroke-width:0.048;stroke-miterlimit:10;}
	.st40{fill:none;stroke:#FFFFFF;stroke-width:0.0498;stroke-miterlimit:10;}
	.st41{fill:none;stroke:#FFFFFF;stroke-width:0.0516;stroke-miterlimit:10;}
	.st42{fill:none;stroke:#FFFFFF;stroke-width:0.0534;stroke-miterlimit:10;}
	.st43{fill:none;stroke:#FFFFFF;stroke-width:0.0554;stroke-miterlimit:10;}
	.st44{fill:none;stroke:#FFFFFF;stroke-width:0.0574;stroke-miterlimit:10;}
	.st45{fill:none;stroke:#FFFFFF;stroke-width:0.0595;stroke-miterlimit:10;}
	.st46{fill:none;stroke:#FFFFFF;stroke-width:0.0617;stroke-miterlimit:10;}
	.st47{fill:none;stroke:#FFFFFF;stroke-width:0.0639;stroke-miterlimit:10;}
	.st48{fill:none;stroke:#FFFFFF;stroke-width:0.0662;stroke-miterlimit:10;}
	.st49{fill:none;stroke:#FFFFFF;stroke-width:0.0686;stroke-miterlimit:10;}
	.st50{fill:none;stroke:#FFFFFF;stroke-width:0.0711;stroke-miterlimit:10;}
	.st51{fill:none;stroke:#FFFFFF;stroke-width:0.0737;stroke-miterlimit:10;}
	.st52{fill:none;stroke:#FFFFFF;stroke-width:0.0764;stroke-miterlimit:10;}
	.st53{fill:none;stroke:#FFFFFF;stroke-width:0.0792;stroke-miterlimit:10;}
	.st54{fill:none;stroke:#FFFFFF;stroke-width:0.0821;stroke-miterlimit:10;}
	.st55{fill:none;stroke:#FFFFFF;stroke-width:0.0851;stroke-miterlimit:10;}
	.st56{fill:none;stroke:#FFFFFF;stroke-width:0.0882;stroke-miterlimit:10;}
	.st57{fill:none;stroke:#FFFFFF;stroke-width:0.0914;stroke-miterlimit:10;}
	.st58{fill:none;stroke:#FFFFFF;stroke-width:0.0947;stroke-miterlimit:10;}
	.st59{fill:none;stroke:#FFFFFF;stroke-width:0.0981;stroke-miterlimit:10;}
	.st60{fill:none;stroke:#FFFFFF;stroke-width:0.1017;stroke-miterlimit:10;}
	.st61{fill:none;stroke:#FFFFFF;stroke-width:0.1054;stroke-miterlimit:10;}
	.st62{fill:none;stroke:#FFFFFF;stroke-width:0.1092;stroke-miterlimit:10;}
	.st63{fill:none;stroke:#FFFFFF;stroke-width:0.1132;stroke-miterlimit:10;}
	.st64{fill:none;stroke:#FFFFFF;stroke-width:0.1173;stroke-miterlimit:10;}
	.st65{fill:none;stroke:#FFFFFF;stroke-width:0.1216;stroke-miterlimit:10;}
	.st66{fill:none;stroke:#FFFFFF;stroke-width:0.126;stroke-miterlimit:10;}
	.st67{fill:none;stroke:#FFFFFF;stroke-width:0.1306;stroke-miterlimit:10;}
	.st68{fill:none;stroke:#FFFFFF;stroke-width:0.1354;stroke-miterlimit:10;}
	.st69{fill:none;stroke:#FFFFFF;stroke-width:0.1403;stroke-miterlimit:10;}
	.st70{fill:none;stroke:#FFFFFF;stroke-width:0.1454;stroke-miterlimit:10;}
	.st71{fill:none;stroke:#FFFFFF;stroke-width:0.1507;stroke-miterlimit:10;}
	.st72{fill:none;stroke:#FFFFFF;stroke-width:0.1562;stroke-miterlimit:10;}
	.st73{fill:none;stroke:#FFFFFF;stroke-width:0.1619;stroke-miterlimit:10;}
	.st74{fill:none;stroke:#FFFFFF;stroke-width:0.1678;stroke-miterlimit:10;}
	.st75{fill:none;stroke:#FFFFFF;stroke-width:0.1739;stroke-miterlimit:10;}
	.st76{fill:none;stroke:#FFFFFF;stroke-width:0.1802;stroke-miterlimit:10;}
	.st77{fill:none;stroke:#FFFFFF;stroke-width:0.1868;stroke-miterlimit:10;}
	.st78{fill:none;stroke:#FFFFFF;stroke-width:0.1935;stroke-miterlimit:10;}
	.st79{fill:none;stroke:#FFFFFF;stroke-width:0.2006;stroke-miterlimit:10;}
	.st80{fill:none;stroke:#FFFFFF;stroke-width:0.2079;stroke-miterlimit:10;}
	.st81{fill:none;stroke:#FFFFFF;stroke-width:0.2155;stroke-miterlimit:10;}
	.st82{fill:none;stroke:#FFFFFF;stroke-width:0.2233;stroke-miterlimit:10;}
	.st83{fill:none;stroke:#FFFFFF;stroke-width:0.2314;stroke-miterlimit:10;}
	.st84{fill:none;stroke:#FFFFFF;stroke-width:0.2398;stroke-miterlimit:10;}
	.st85{fill:none;stroke:#FFFFFF;stroke-width:0.2486;stroke-miterlimit:10;}
	.st86{fill:none;stroke:#FFFFFF;stroke-width:0.2576;stroke-miterlimit:10;}
	.st87{fill:none;stroke:#FFFFFF;stroke-width:0.267;stroke-miterlimit:10;}
	.st88{fill:none;stroke:#FFFFFF;stroke-width:0.2767;stroke-miterlimit:10;}
	.st89{fill:none;stroke:#FFFFFF;stroke-width:0.2868;stroke-miterlimit:10;}
	.st90{fill:none;stroke:#FFFFFF;stroke-width:0.2972;stroke-miterlimit:10;}
	.st91{fill:none;stroke:#FFFFFF;stroke-width:0.308;stroke-miterlimit:10;}
	.st92{fill:none;stroke:#FFFFFF;stroke-width:0.3193;stroke-miterlimit:10;}
	.st93{fill:none;stroke:#FFFFFF;stroke-width:0.3309;stroke-miterlimit:10;}
	.st94{fill:none;stroke:#FFFFFF;stroke-width:0.3429;stroke-miterlimit:10;}
	.st95{fill:none;stroke:#FFFFFF;stroke-width:0.3554;stroke-miterlimit:10;}
	.st96{fill:none;stroke:#FFFFFF;stroke-width:0.3683;stroke-miterlimit:10;}
	.st97{fill:none;stroke:#FFFFFF;stroke-width:0.3817;stroke-miterlimit:10;}
	.st98{fill:none;stroke:#FFFFFF;stroke-width:0.3956;stroke-miterlimit:10;}
	.st99{fill:none;stroke:#FFFFFF;stroke-width:0.41;stroke-miterlimit:10;}
	.st100{fill:none;stroke:#FFFFFF;stroke-width:0.425;stroke-miterlimit:10;}
</style>
<g>
	<g>
		<path class="st0" d="M133.913,151.541c0.273,0.335,0.953,0.34,1.513,0.011l2.33-1.371c0.559-0.329,1.251-1.142,1.538-1.806
			l1.194-2.767c0.287-0.664,0.298-1.482,0.025-1.817l-1.137-1.396c-0.273-0.335-0.953-0.34-1.513-0.011l-2.33,1.371
			c-0.559,0.329-1.251,1.142-1.538,1.806l-1.194,2.767c-0.286,0.664-0.298,1.482-0.025,1.817L133.913,151.541z"/>
	</g>
	<g>
		<path class="st1" d="M133.617,151.625c0.26,0.367,0.953,0.41,1.541,0.095l2.448-1.313c0.587-0.315,1.336-1.131,1.663-1.813
			l1.364-2.843c0.327-0.682,0.383-1.541,0.123-1.908l-1.084-1.531c-0.26-0.367-0.953-0.41-1.541-0.095l-2.448,1.313
			c-0.587,0.315-1.336,1.131-1.663,1.813l-1.364,2.843c-0.327,0.682-0.383,1.541-0.123,1.908L133.617,151.625z"/>
	</g>
	<g>
		<path class="st2" d="M133.31,151.697c0.245,0.4,0.95,0.484,1.565,0.185l2.565-1.245c0.615-0.299,1.422-1.115,1.792-1.815
			l1.542-2.914c0.37-0.699,0.472-1.599,0.227-1.999l-1.022-1.669c-0.245-0.4-0.95-0.484-1.565-0.185l-2.565,1.245
			c-0.615,0.299-1.422,1.115-1.792,1.815l-1.542,2.914c-0.37,0.699-0.472,1.599-0.227,1.999L133.31,151.697z"/>
	</g>
	<g>
		<path class="st3" d="M132.995,151.755c0.229,0.434,0.942,0.561,1.585,0.28l2.68-1.168c0.643-0.28,1.508-1.094,1.923-1.809
			l1.727-2.978c0.414-0.715,0.567-1.655,0.338-2.089l-0.953-1.81c-0.229-0.434-0.942-0.561-1.585-0.28l-2.68,1.168
			c-0.643,0.28-1.508,1.094-1.923,1.809l-1.727,2.978c-0.414,0.715-0.567,1.655-0.338,2.089L132.995,151.755z"/>
	</g>
	<g>
		<path class="st4" d="M132.67,151.799c0.21,0.469,0.93,0.641,1.6,0.382l2.793-1.08c0.67-0.259,1.595-1.067,2.056-1.795l1.919-3.035
			c0.461-0.728,0.666-1.708,0.456-2.177l-0.874-1.955c-0.21-0.469-0.93-0.641-1.6-0.382l-2.793,1.08
			c-0.67,0.259-1.595,1.067-2.056,1.795l-1.919,3.035c-0.461,0.728-0.666,1.708-0.456,2.177L132.67,151.799z"/>
	</g>
	<g>
		<path class="st5" d="M132.336,151.827c0.189,0.505,0.913,0.725,1.61,0.49l2.904-0.981c0.697-0.235,1.683-1.034,2.191-1.774
			l2.118-3.085c0.508-0.74,0.77-1.759,0.581-2.264l-0.786-2.104c-0.189-0.505-0.913-0.725-1.61-0.49l-2.904,0.981
			c-0.697,0.235-1.683,1.034-2.191,1.774l-2.118,3.085c-0.508,0.74-0.77,1.759-0.581,2.264L132.336,151.827z"/>
	</g>
	<g>
		<path class="st6" d="M131.995,151.839c0.165,0.541,0.892,0.813,1.615,0.604l3.012-0.871c0.723-0.209,1.77-0.994,2.327-1.744
			l2.323-3.126c0.557-0.75,0.878-1.807,0.713-2.348l-0.689-2.255c-0.165-0.541-0.892-0.813-1.615-0.604l-3.012,0.871
			c-0.723,0.209-1.77,0.994-2.327,1.744l-2.323,3.126c-0.557,0.75-0.878,1.807-0.713,2.348L131.995,151.839z"/>
	</g>
	<g>
		<path class="st7" d="M131.646,151.832c0.14,0.578,0.865,0.903,1.613,0.723l3.115-0.75c0.748-0.18,1.857-0.947,2.465-1.705
			l2.534-3.158c0.608-0.758,0.991-1.851,0.852-2.429l-0.582-2.408c-0.14-0.578-0.865-0.903-1.613-0.723l-3.115,0.75
			c-0.748,0.18-1.857,0.947-2.465,1.705l-2.534,3.158c-0.608,0.758-0.991,1.851-0.852,2.429L131.646,151.832z"/>
	</g>
	<g>
		<path class="st8" d="M131.291,151.805c0.111,0.615,0.834,0.997,1.605,0.849l3.215-0.617c0.771-0.148,1.943-0.894,2.603-1.657
			l2.75-3.18c0.66-0.763,1.109-1.891,0.998-2.506l-0.464-2.563c-0.111-0.615-0.834-0.997-1.605-0.849l-3.215,0.617
			c-0.771,0.148-1.943,0.894-2.603,1.657l-2.75,3.18c-0.66,0.763-1.109,1.891-0.998,2.506L131.291,151.805z"/>
	</g>
	<g>
		<path class="st9" d="M130.931,151.758c0.081,0.653,0.796,1.094,1.59,0.981l3.309-0.471c0.794-0.113,2.027-0.832,2.741-1.598
			l2.973-3.192c0.713-0.766,1.231-1.927,1.15-2.579l-0.336-2.72c-0.081-0.653-0.796-1.094-1.59-0.981l-3.309,0.471
			c-0.794,0.113-2.027,0.832-2.741,1.598l-2.973,3.192c-0.713,0.766-1.231,1.927-1.15,2.579L130.931,151.758z"/>
	</g>
	<g>
		<path class="st10" d="M130.567,151.689c0.047,0.691,0.753,1.194,1.568,1.119l3.397-0.313c0.815-0.075,2.11-0.763,2.878-1.529
			l3.2-3.191c0.768-0.766,1.357-1.957,1.31-2.648l-0.197-2.878c-0.047-0.691-0.753-1.194-1.568-1.119l-3.397,0.313
			c-0.815,0.075-2.11,0.763-2.878,1.529l-3.2,3.191c-0.768,0.766-1.357,1.957-1.31,2.648L130.567,151.689z"/>
	</g>
	<g>
		<path class="st11" d="M130.199,151.595c0.011,0.729,0.703,1.297,1.538,1.263l3.478-0.142c0.835-0.034,2.191-0.686,3.014-1.449
			l3.431-3.178c0.823-0.763,1.488-1.983,1.476-2.711l-0.047-3.036c-0.011-0.729-0.703-1.297-1.538-1.263l-3.478,0.142
			c-0.835,0.034-2.191,0.686-3.014,1.449l-3.431,3.178c-0.823,0.763-1.488,1.983-1.476,2.711L130.199,151.595z"/>
	</g>
	<g>
		<path class="st12" d="M129.83,151.477c-0.027,0.766,0.648,1.402,1.5,1.412l3.552,0.042c0.852,0.01,2.269-0.6,3.149-1.357
			l3.666-3.152c0.88-0.756,1.622-2.002,1.649-2.769l0.114-3.194c0.027-0.766-0.648-1.402-1.5-1.412l-3.552-0.042
			c-0.852-0.01-2.269,0.6-3.149,1.357l-3.666,3.152c-0.88,0.756-1.622,2.002-1.649,2.769L129.83,151.477z"/>
	</g>
	<g>
		<path class="st13" d="M129.459,151.332c-0.069,0.804,0.585,1.509,1.453,1.567l3.617,0.24c0.868,0.058,2.345-0.506,3.281-1.253
			l3.904-3.111c0.937-0.747,1.76-2.016,1.828-2.82l0.287-3.351c0.069-0.804-0.585-1.509-1.453-1.567l-3.617-0.24
			c-0.868-0.058-2.345,0.506-3.281,1.253l-3.904,3.111c-0.937,0.747-1.76,2.016-1.828,2.82L129.459,151.332z"/>
	</g>
	<g>
		<path class="st14" d="M129.09,151.16c-0.113,0.842,0.516,1.619,1.397,1.727l3.673,0.452c0.881,0.108,2.416-0.403,3.411-1.136
			l4.144-3.056c0.994-0.733,1.901-2.022,2.014-2.863l0.471-3.507c0.113-0.842-0.516-1.619-1.397-1.727l-3.673-0.452
			c-0.881-0.108-2.416,0.403-3.411,1.136l-4.144,3.056c-0.994,0.733-1.901,2.022-2.014,2.863L129.09,151.16z"/>
	</g>
	<g>
		<path class="st15" d="M128.722,150.958c-0.16,0.878,0.439,1.73,1.331,1.893l3.719,0.677c0.892,0.162,2.484-0.29,3.536-1.006
			l4.386-2.984c1.053-0.716,2.045-2.021,2.205-2.899l0.667-3.661c0.16-0.878-0.439-1.73-1.331-1.893l-3.719-0.677
			c-0.892-0.162-2.484,0.29-3.536,1.006l-4.386,2.984c-1.053,0.716-2.045,2.021-2.205,2.899L128.722,150.958z"/>
	</g>
	<g>
		<path class="st16" d="M128.358,150.726c-0.21,0.915,0.355,1.843,1.256,2.063l3.753,0.916c0.901,0.22,2.546-0.168,3.657-0.863
			l4.629-2.895c1.111-0.695,2.192-2.011,2.402-2.926l0.876-3.811c0.21-0.915-0.355-1.843-1.256-2.063l-3.753-0.916
			c-0.901-0.22-2.546,0.168-3.657,0.863l-4.629,2.895c-1.111,0.695-2.192,2.011-2.402,2.926L128.358,150.726z"/>
	</g>
	<g>
		<path class="st17" d="M128,150.462c-0.263,0.95,0.263,1.957,1.169,2.238l3.776,1.17c0.906,0.281,2.604-0.037,3.773-0.706
			l4.871-2.788c1.169-0.669,2.341-1.994,2.604-2.943l1.096-3.958c0.263-0.95-0.263-1.957-1.169-2.238l-3.776-1.17
			c-0.906-0.281-2.604,0.037-3.773,0.706l-4.871,2.788c-1.169,0.669-2.341,1.994-2.604,2.943L128,150.462z"/>
	</g>
	<g>
		<path class="st18" d="M127.649,150.165c-0.319,0.984,0.164,2.071,1.072,2.416l3.785,1.438c0.908,0.345,2.655,0.105,3.882-0.534
			l5.113-2.662c1.227-0.639,2.492-1.967,2.81-2.951l1.328-4.1c0.319-0.984-0.164-2.071-1.072-2.416l-3.785-1.438
			c-0.908-0.345-2.655-0.105-3.882,0.534l-5.113,2.662c-1.227,0.639-2.492,1.967-2.81,2.951L127.649,150.165z"/>
	</g>
	<g>
		<path class="st19" d="M127.308,149.833c-0.377,1.017,0.056,2.186,0.963,2.599l3.78,1.72c0.907,0.413,2.7,0.256,3.985-0.348
			l5.352-2.517c1.284-0.604,2.644-1.93,3.021-2.947l1.572-4.237c0.377-1.017-0.056-2.186-0.963-2.599l-3.78-1.72
			c-0.907-0.413-2.7-0.256-3.985,0.348l-5.352,2.517c-1.284,0.604-2.644,1.93-3.021,2.947L127.308,149.833z"/>
	</g>
	<g>
		<path class="st20" d="M126.977,149.465c-0.439,1.048-0.06,2.301,0.843,2.785l3.76,2.016c0.902,0.484,2.738,0.418,4.079-0.146
			l5.588-2.351c1.341-0.564,2.797-1.883,3.236-2.931l1.828-4.367c0.439-1.048,0.06-2.301-0.843-2.785l-3.76-2.016
			c-0.902-0.484-2.738-0.418-4.079,0.146l-5.588,2.351c-1.341,0.564-2.797,1.883-3.236,2.931L126.977,149.465z"/>
	</g>
	<g>
		<path class="st21" d="M126.66,149.06c-0.503,1.078-0.184,2.416,0.71,2.974l3.724,2.327c0.894,0.558,2.768,0.59,4.164,0.071
			l5.82-2.163c1.397-0.519,2.951-1.826,3.454-2.903l2.096-4.49c0.503-1.078,0.184-2.416-0.71-2.974l-3.724-2.327
			c-0.894-0.558-2.768-0.59-4.164-0.071l-5.82,2.163c-1.397,0.519-2.951,1.826-3.454,2.903L126.66,149.06z"/>
	</g>
	<g>
		<path class="st22" d="M126.359,148.617c-0.57,1.105-0.316,2.53,0.565,3.166l3.67,2.651c0.881,0.636,2.789,0.773,4.24,0.304
			l6.046-1.953c1.451-0.469,3.105-1.756,3.675-2.861l2.376-4.605c0.57-1.105,0.316-2.53-0.565-3.166l-3.67-2.651
			c-0.881-0.636-2.789-0.773-4.24-0.304l-6.046,1.953c-1.451,0.469-3.105,1.756-3.675,2.861L126.359,148.617z"/>
	</g>
	<g>
		<path class="st23" d="M126.075,148.135c-0.64,1.13-0.457,2.642,0.406,3.359l3.599,2.989c0.864,0.717,2.8,0.966,4.304,0.554
			l6.266-1.72c1.504-0.413,3.257-1.675,3.898-2.805l2.667-4.709c0.64-1.13,0.457-2.642-0.406-3.359l-3.599-2.989
			c-0.864-0.717-2.8-0.966-4.304-0.554l-6.266,1.72c-1.504,0.413-3.257,1.675-3.898,2.805L126.075,148.135z"/>
	</g>
	<g>
		<path class="st24" d="M125.812,147.613c-0.713,1.153-0.607,2.752,0.235,3.553l3.507,3.34c0.842,0.802,2.802,1.17,4.356,0.819
			l6.477-1.463c1.554-0.351,3.409-1.582,4.121-2.734l2.969-4.803c0.713-1.153,0.607-2.752-0.235-3.553l-3.507-3.34
			c-0.842-0.802-2.802-1.17-4.356-0.819l-6.477,1.463c-1.554,0.351-3.409,1.582-4.121,2.734L125.812,147.613z"/>
	</g>
	<g>
		<path class="st25" d="M125.571,147.049c-0.788,1.172-0.765,2.859,0.049,3.748l3.396,3.704c0.815,0.889,2.793,1.384,4.395,1.101
			l6.678-1.181c1.603-0.283,3.558-1.475,4.346-2.647l3.282-4.886c0.788-1.172,0.765-2.859-0.049-3.748l-3.396-3.704
			c-0.815-0.889-2.793-1.384-4.395-1.101l-6.678,1.181c-1.603,0.283-3.558,1.475-4.346,2.647L125.571,147.049z"/>
	</g>
	<g>
		<path class="st26" d="M125.357,146.443c-0.865,1.189-0.933,2.963-0.15,3.943l3.262,4.081c0.783,0.979,2.772,1.609,4.42,1.399
			l6.868-0.874c1.648-0.21,3.705-1.354,4.57-2.543l3.606-4.955c0.865-1.189,0.933-2.963,0.15-3.943l-3.262-4.081
			c-0.783-0.979-2.772-1.609-4.42-1.399l-6.868,0.874c-1.648,0.21-3.705,1.354-4.57,2.543L125.357,146.443z"/>
	</g>
	<g>
		<path class="st27" d="M125.17,145.794c-0.945,1.202-1.109,3.064-0.363,4.136l3.106,4.47c0.745,1.073,2.739,1.844,4.429,1.715
			l7.045-0.54c1.691-0.13,3.847-1.219,4.792-2.422l3.939-5.01c0.945-1.202,1.109-3.064,0.363-4.136l-3.106-4.47
			c-0.745-1.073-2.739-1.844-4.429-1.715l-7.045,0.54c-1.691,0.13-3.847,1.219-4.792,2.422L125.17,145.794z"/>
	</g>
	<g>
		<path class="st28" d="M125.015,145.102c-1.027,1.212-1.293,3.159-0.591,4.328l2.927,4.87c0.702,1.169,2.692,2.089,4.422,2.046
			l7.208-0.18c1.73-0.043,3.986-1.07,5.013-2.282l4.281-5.049c1.027-1.212,1.293-3.159,0.591-4.328l-2.927-4.87
			c-0.702-1.169-2.692-2.089-4.422-2.046l-7.208,0.18c-1.73,0.043-3.986,1.07-5.013,2.282L125.015,145.102z"/>
	</g>
	<g>
		<path class="st29" d="M124.893,144.366c-1.112,1.217-1.487,3.25-0.833,4.517l2.722,5.28c0.653,1.267,2.632,2.345,4.397,2.395
			l7.355,0.208c1.765,0.05,4.118-0.905,5.23-2.122l4.632-5.072c1.112-1.217,1.487-3.25,0.833-4.517l-2.722-5.28
			c-0.653-1.267-2.632-2.345-4.397-2.395l-7.355-0.208c-1.765-0.05-4.118,0.905-5.23,2.122L124.893,144.366z"/>
	</g>
	<g>
		<path class="st30" d="M124.809,143.585c-1.198,1.218-1.688,3.334-1.09,4.702l2.492,5.7c0.598,1.368,2.557,2.61,4.352,2.759
			l7.483,0.624c1.796,0.15,4.245-0.725,5.443-1.943l4.991-5.077c1.198-1.218,1.688-3.334,1.09-4.702l-2.492-5.7
			c-0.598-1.368-2.557-2.61-4.352-2.759l-7.483-0.624c-1.796-0.15-4.245,0.725-5.443,1.943L124.809,143.585z"/>
	</g>
	<g>
		<path class="st31" d="M124.765,142.76c-1.286,1.215-1.899,3.412-1.362,4.883l2.235,6.13c0.536,1.471,2.466,2.884,4.288,3.14
			l7.592,1.068c1.822,0.256,4.364-0.528,5.65-1.742l5.357-5.061c1.286-1.215,1.899-3.412,1.362-4.883l-2.235-6.13
			c-0.536-1.471-2.466-2.884-4.288-3.14l-7.592-1.068c-1.822-0.256-4.364,0.528-5.65,1.742L124.765,142.76z"/>
	</g>
	<g>
		<path class="st32" d="M124.764,141.89c-1.375,1.206-2.117,3.482-1.649,5.058l1.95,6.566c0.468,1.576,2.359,3.168,4.202,3.537
			l7.679,1.541c1.843,0.37,4.476-0.314,5.85-1.52l5.729-5.025c1.375-1.206,2.117-3.482,1.649-5.058l-1.95-6.566
			c-0.468-1.576-2.359-3.168-4.202-3.537l-7.679-1.541c-1.843-0.37-4.476,0.314-5.85,1.52L124.764,141.89z"/>
	</g>
	<g>
		<path class="st33" d="M124.809,140.975c-1.465,1.192-2.343,3.544-1.95,5.226l1.637,7.01c0.393,1.682,2.234,3.46,4.093,3.95
			l7.743,2.043c1.858,0.49,4.577-0.084,6.043-1.276l6.107-4.967c1.465-1.192,2.343-3.544,1.95-5.226l-1.637-7.01
			c-0.393-1.682-2.234-3.46-4.093-3.95l-7.743-2.043c-1.858-0.49-4.577,0.084-6.043,1.276L124.809,140.975z"/>
	</g>
	<g>
		<path class="st34" d="M124.904,140.017c-1.557,1.172-2.577,3.596-2.267,5.386l1.293,7.459c0.31,1.79,2.092,3.76,3.959,4.378
			l7.781,2.574c1.867,0.618,4.669,0.164,6.226-1.008l6.488-4.885c1.557-1.172,2.577-3.596,2.267-5.386l-1.293-7.459
			c-0.31-1.79-2.092-3.76-3.959-4.378l-7.781-2.574c-1.867-0.618-4.669-0.164-6.226,1.008L124.904,140.017z"/>
	</g>
	<g>
		<path class="st35" d="M125.052,139.014c-1.649,1.146-2.818,3.638-2.597,5.537l0.92,7.912c0.221,1.899,1.931,4.068,3.801,4.82
			l7.792,3.135c1.87,0.752,4.749,0.43,6.398-0.717l6.872-4.778c1.649-1.146,2.818-3.638,2.597-5.537l-0.92-7.912
			c-0.221-1.899-1.931-4.068-3.801-4.82l-7.792-3.135c-1.87-0.752-4.749-0.43-6.398,0.717L125.052,139.014z"/>
	</g>
	<g>
		<path class="st36" d="M125.256,137.968c-1.742,1.114-3.066,3.669-2.942,5.677l0.514,8.368c0.123,2.008,1.751,4.382,3.616,5.276
			l7.772,3.724c1.865,0.894,4.816,0.713,6.558-0.401l7.258-4.643c1.742-1.114,3.066-3.669,2.942-5.677l-0.514-8.368
			c-0.123-2.008-1.751-4.382-3.616-5.276l-7.772-3.724c-1.865-0.894-4.816-0.713-6.558,0.401L125.256,137.968z"/>
	</g>
	<g>
		<path class="st37" d="M125.521,136.88c-1.834,1.075-3.32,3.688-3.301,5.806l0.077,8.824c0.019,2.118,1.55,4.703,3.403,5.745
			l7.721,4.343c1.853,1.042,4.87,1.015,6.704-0.06l7.644-4.481c1.834-1.075,3.32-3.688,3.301-5.806l-0.077-8.824
			c-0.019-2.118-1.55-4.703-3.403-5.745l-7.721-4.343c-1.853-1.042-4.87-1.015-6.704,0.06L125.521,136.88z"/>
	</g>
	<g>
		<path class="st38" d="M125.848,135.751c-1.927,1.029-3.58,3.694-3.674,5.921l-0.392,9.28c-0.094,2.227,1.328,5.029,3.161,6.227
			l7.636,4.991c1.832,1.198,4.908,1.335,6.835,0.306l8.029-4.29c1.927-1.029,3.58-3.694,3.674-5.921l0.392-9.28
			c0.094-2.227-1.328-5.029-3.161-6.227l-7.636-4.991c-1.832-1.198-4.908-1.335-6.835-0.306L125.848,135.751z"/>
	</g>
	<g>
		<path class="st39" d="M126.242,134.582c-2.018,0.976-3.845,3.686-4.06,6.021l-0.895,9.734c-0.215,2.336,1.085,5.36,2.888,6.72
			l7.515,5.667c1.803,1.36,4.93,1.674,6.948,0.698l8.41-4.067c2.018-0.976,3.845-3.686,4.06-6.021l0.895-9.734
			c0.215-2.336-1.085-5.36-2.888-6.72l-7.515-5.667c-1.803-1.36-4.93-1.674-6.948-0.698L126.242,134.582z"/>
	</g>
	<g>
		<path class="st40" d="M126.705,133.375c-2.109,0.915-4.115,3.662-4.459,6.106l-1.432,10.183c-0.344,2.444,0.819,5.694,2.584,7.223
			l7.355,6.371c1.765,1.529,4.934,2.031,7.043,1.117l8.787-3.812c2.109-0.915,4.115-3.662,4.459-6.106l1.432-10.183
			c0.344-2.444-0.819-5.694-2.584-7.223l-7.355-6.371c-1.765-1.529-4.934-2.031-7.043-1.117L126.705,133.375z"/>
	</g>
	<g>
		<path class="st41" d="M127.242,132.131c-2.198,0.845-4.389,3.623-4.87,6.173l-2.003,10.625c-0.481,2.55,0.531,6.03,2.248,7.735
			l7.155,7.102c1.717,1.704,4.92,2.407,7.117,1.562l9.158-3.523c2.198-0.845,4.389-3.623,4.87-6.173l2.003-10.625
			c0.481-2.55-0.531-6.03-2.248-7.735l-7.155-7.102c-1.717-1.704-4.92-2.407-7.117-1.562L127.242,132.131z"/>
	</g>
	<g>
		<path class="st42" d="M127.856,130.854c-2.285,0.768-4.666,3.567-5.292,6.221l-2.609,11.059c-0.626,2.654,0.219,6.368,1.877,8.255
			l6.911,7.86c1.659,1.886,4.885,2.801,7.169,2.034l9.52-3.199c2.285-0.768,4.666-3.567,5.292-6.221l2.609-11.059
			c0.626-2.654-0.219-6.368-1.877-8.255l-6.911-7.86c-1.659-1.886-4.885-2.801-7.169-2.034L127.856,130.854z"/>
	</g>
	<g>
		<path class="st43" d="M128.55,129.545c-2.369,0.681-4.945,3.492-5.725,6.248l-3.249,11.481c-0.78,2.755-0.117,6.706,1.472,8.78
			l6.623,8.643c1.589,2.074,4.828,3.214,7.197,2.533l9.872-2.838c2.369-0.681,4.945-3.492,5.725-6.248l3.249-11.481
			c0.78-2.755,0.117-6.706-1.472-8.78l-6.623-8.643c-1.589-2.074-4.828-3.214-7.197-2.533L128.55,129.545z"/>
	</g>
	<g>
		<path class="st44" d="M129.326,128.207c-2.45,0.585-5.226,3.399-6.167,6.252l-3.924,11.89c-0.942,2.853-0.478,7.043,1.031,9.311
			l6.287,9.45c1.509,2.268,4.748,3.644,7.198,3.059l10.211-2.439c2.45-0.585,5.226-3.399,6.167-6.252l3.924-11.89
			c0.942-2.853,0.478-7.043-1.031-9.311l-6.287-9.45c-1.509-2.268-4.748-3.644-7.198-3.059L129.326,128.207z"/>
	</g>
	<g>
		<path class="st45" d="M130.189,126.843c-2.528,0.48-5.507,3.285-6.618,6.232l-4.633,12.282c-1.112,2.947-0.863,7.377,0.553,9.844
			l5.902,10.281c1.416,2.467,4.644,4.093,7.172,3.612l10.535-2.002c2.528-0.48,5.507-3.285,6.618-6.232l4.633-12.282
			c1.112-2.947,0.863-7.377-0.553-9.844l-5.902-10.281c-1.416-2.467-4.644-4.093-7.172-3.612L130.189,126.843z"/>
	</g>
	<g>
		<path class="st46" d="M131.141,125.458c-2.602,0.366-5.787,3.15-7.077,6.187l-5.377,12.656c-1.29,3.037-1.273,7.708,0.038,10.379
			l5.465,11.132c1.312,2.671,4.513,4.558,7.115,4.192l10.843-1.524c2.602-0.366,5.787-3.15,7.077-6.187l5.377-12.656
			c1.29-3.037,1.273-7.708-0.038-10.379l-5.465-11.132c-1.312-2.671-4.513-4.558-7.115-4.192L131.141,125.458z"/>
	</g>
	<g>
		<path class="st47" d="M132.185,124.053c-2.671,0.241-6.065,2.992-7.542,6.113l-6.156,13.007
			c-1.477,3.121-1.709,8.032-0.515,10.912l4.975,12.003c1.194,2.88,4.356,5.04,7.027,4.799l11.13-1.004
			c2.671-0.241,6.065-2.992,7.542-6.113l6.156-13.007c1.477-3.121,1.709-8.032,0.515-10.912l-4.975-12.003
			c-1.194-2.88-4.356-5.04-7.027-4.799L132.185,124.053z"/>
	</g>
	<g>
		<path class="st48" d="M133.324,122.635c-2.735,0.106-6.34,2.811-8.012,6.011l-6.967,13.334c-1.672,3.2-2.17,8.349-1.108,11.442
			l4.428,12.891c1.063,3.094,4.169,5.538,6.904,5.432l11.395-0.443c2.735-0.106,6.34-2.811,8.012-6.011l6.967-13.334
			c1.672-3.2,2.17-8.349,1.108-11.442l-4.428-12.891c-1.063-3.094-4.169-5.538-6.904-5.432L133.324,122.635z"/>
	</g>
	<g>
		<path class="st49" d="M134.561,121.206c-2.792-0.039-6.611,2.606-8.485,5.877l-7.812,13.633c-1.875,3.271-2.658,8.657-1.74,11.967
			l3.824,13.795c0.918,3.31,3.953,6.051,6.745,6.09l11.636,0.162c2.792,0.039,6.611-2.606,8.485-5.877l7.812-13.633
			c1.875-3.271,2.658-8.657,1.74-11.967l-3.824-13.795c-0.918-3.31-3.953-6.051-6.745-6.09L134.561,121.206z"/>
	</g>
	<g>
		<path class="st50" d="M135.897,119.772c-2.843-0.195-6.875,2.375-8.96,5.711l-8.688,13.9c-2.085,3.336-3.17,8.953-2.412,12.484
			l3.16,14.712c0.758,3.53,3.705,6.578,6.548,6.773l11.848,0.812c2.843,0.195,6.875-2.375,8.96-5.711l8.688-13.9
			c2.085-3.336,3.17-8.953,2.412-12.484l-3.16-14.712c-0.758-3.53-3.705-6.578-6.548-6.773L135.897,119.772z"/>
	</g>
	<g>
		<path class="st51" d="M137.335,118.339c-2.887-0.361-7.133,2.118-9.436,5.509l-9.596,14.133c-2.303,3.392-3.709,9.237-3.125,12.99
			l2.434,15.639c0.584,3.753,3.424,7.119,6.311,7.481l12.03,1.506c2.887,0.361,7.133-2.118,9.436-5.509l9.596-14.133
			c2.303-3.392,3.709-9.237,3.125-12.99l-2.434-15.639c-0.584-3.753-3.424-7.119-6.311-7.481L137.335,118.339z"/>
	</g>
	<g>
		<path class="st52" d="M138.877,116.912c-2.922-0.539-7.382,1.833-9.909,5.272l-10.533,14.328
			c-2.528,3.438-4.273,9.506-3.878,13.483l1.645,16.574c0.395,3.977,3.109,7.672,6.031,8.211l12.178,2.246
			c2.922,0.539,7.382-1.833,9.909-5.272l10.533-14.328c2.528-3.438,4.273-9.506,3.878-13.483l-1.645-16.574
			c-0.395-3.977-3.109-7.672-6.031-8.211L138.877,116.912z"/>
	</g>
	<g>
		<path class="st53" d="M140.525,115.496c-2.949-0.728-7.62,1.52-10.379,4.995l-11.498,14.481
			c-2.759,3.475-4.861,9.757-4.672,13.959l0.792,17.513c0.19,4.203,2.758,8.236,5.708,8.964l12.29,3.032
			c2.949,0.728,7.62-1.52,10.379-4.995l11.498-14.481c2.759-3.475,4.861-9.757,4.672-13.959l-0.792-17.513
			c-0.19-4.203-2.758-8.236-5.708-8.964L140.525,115.496z"/>
	</g>
	<g>
		<path class="st54" d="M142.279,114.099c-2.966-0.927-7.846,1.178-10.843,4.679l-12.49,14.589
			c-2.997,3.501-5.475,9.988-5.506,14.417l-0.129,18.453c-0.031,4.428,2.371,8.81,5.337,9.737l12.362,3.864
			c2.966,0.927,7.846-1.178,10.843-4.679l12.49-14.589c2.997-3.501,5.475-9.988,5.506-14.417l0.129-18.453
			c0.031-4.428-2.371-8.81-5.337-9.737L142.279,114.099z"/>
	</g>
	<g>
		<path class="st55" d="M144.142,112.727c-2.973-1.138-8.058,0.807-11.299,4.322l-13.507,14.647
			c-3.241,3.515-6.112,10.198-6.38,14.851l-1.117,19.39c-0.268,4.653,1.946,9.392,4.919,10.53l12.39,4.743
			c2.973,1.138,8.058-0.807,11.299-4.322l13.507-14.647c3.241-3.515,6.112-10.198,6.38-14.851l1.117-19.39
			c0.268-4.653-1.946-9.392-4.919-10.53L144.142,112.727z"/>
	</g>
	<g>
		<path class="st56" d="M146.113,111.387c-2.969-1.36-8.254,0.404-11.745,3.92l-14.546,14.653
			c-3.491,3.516-6.773,10.383-7.295,15.26l-2.173,20.321c-0.522,4.877,1.481,9.979,4.45,11.34l12.372,5.668
			c2.969,1.36,8.254-0.404,11.745-3.92l14.546-14.653c3.491-3.516,6.773-10.383,7.295-15.26l2.173-20.321
			c0.522-4.877-1.481-9.979-4.45-11.34L146.113,111.387z"/>
	</g>
	<g>
		<path class="st57" d="M148.193,110.087c-2.953-1.593-8.433-0.03-12.177,3.474l-15.605,14.602
			c-3.745,3.504-7.457,10.542-8.248,15.639l-3.3,21.242c-0.792,5.098,0.976,10.572,3.929,12.165l12.305,6.64
			c2.953,1.593,8.433,0.03,12.177-3.474l15.605-14.602c3.745-3.504,7.457-10.542,8.248-15.639l3.3-21.242
			c0.792-5.098-0.976-10.572-3.929-12.165L148.193,110.087z"/>
	</g>
	<g>
		<path class="st58" d="M150.382,108.835c-2.924-1.838-8.591-0.496-12.594,2.981l-16.681,14.49
			c-4.003,3.477-8.161,10.671-9.24,15.985l-4.497,22.147c-1.079,5.315,0.43,11.167,3.354,13.005l12.184,7.658
			c2.924,1.838,8.591,0.496,12.594-2.981l16.681-14.49c4.003-3.477,8.161-10.671,9.24-15.985l4.497-22.147
			c1.079-5.315-0.43-11.167-3.354-13.005L150.382,108.835z"/>
	</g>
	<g>
		<path class="st59" d="M152.68,107.64c-2.881-2.093-8.728-0.995-12.993,2.44l-17.772,14.312
			c-4.265,3.435-8.886,10.767-10.27,16.295l-5.765,23.033c-1.384,5.527-0.158,11.762,2.723,13.855l12.007,8.721
			c2.881,2.093,8.728,0.995,12.993-2.44l17.772-14.312c4.265-3.435,8.886-10.767,10.27-16.295l5.765-23.033
			c1.384-5.527,0.158-11.762-2.723-13.855L152.68,107.64z"/>
	</g>
	<g>
		<path class="st60" d="M155.085,106.51c-2.824-2.359-8.841-1.527-13.37,1.849l-18.874,14.066
			c-4.529,3.375-9.63,10.829-11.335,16.563l-7.105,23.895c-1.705,5.734-0.789,12.356,2.035,14.714l11.769,9.829
			c2.824,2.359,8.841,1.527,13.37-1.849l18.874-14.066c4.529-3.375,9.63-10.829,11.335-16.563l7.105-23.895
			c1.705-5.734,0.789-12.356-2.035-14.714L155.085,106.51z"/>
	</g>
	<g>
		<path class="st61" d="M157.596,105.455c-2.752-2.635-8.928-2.092-13.723,1.207l-19.984,13.746
			c-4.796,3.299-10.392,10.853-12.435,16.786l-8.516,24.727c-2.044,5.934-1.464,12.945,1.288,15.58l11.468,10.98
			c2.752,2.635,8.928,2.092,13.723-1.207l19.984-13.746c4.796-3.299,10.392-10.853,12.435-16.786l8.516-24.727
			c2.044-5.934,1.464-12.945-1.288-15.58L157.596,105.455z"/>
	</g>
	<g>
		<path class="st62" d="M160.211,104.485c-2.664-2.922-8.986-2.691-14.049,0.513l-21.098,13.349
			c-5.063,3.203-11.169,10.836-13.568,16.961l-9.998,25.523c-2.399,6.125-2.183,13.527,0.481,16.448l11.1,12.174
			c2.664,2.921,8.986,2.691,14.049-0.513l21.098-13.349c5.063-3.203,11.169-10.836,13.568-16.961l9.998-25.523
			c2.399-6.125,2.183-13.527-0.481-16.448L160.211,104.485z"/>
	</g>
	<g>
		<path class="st63" d="M162.928,103.608c-2.558-3.218-9.013-3.324-14.343-0.235l-22.212,12.87
			c-5.33,3.088-11.96,10.775-14.732,17.081l-11.552,26.279c-2.772,6.306-2.947,14.099-0.389,17.316l10.661,13.409
			c2.558,3.218,9.013,3.324,14.343,0.235l22.212-12.87c5.33-3.088,11.96-10.775,14.732-17.081l11.552-26.279
			c2.772-6.306,2.947-14.099,0.389-17.316L162.928,103.608z"/>
	</g>
	<g>
		<path class="st64" d="M165.743,102.837c-2.435-3.523-9.007-3.99-14.603-1.037l-23.322,12.305
			c-5.597,2.953-12.762,10.668-15.924,17.144L98.72,158.236c-3.162,6.476-3.756,14.658-1.321,18.181l10.147,14.683
			c2.435,3.523,9.007,3.99,14.603,1.037l23.322-12.305c5.597-2.953,12.762-10.668,15.924-17.144l13.175-26.988
			c3.162-6.476,3.756-14.658,1.321-18.181L165.743,102.837z"/>
	</g>
	<g>
		<path class="st65" d="M168.653,102.181c-2.293-3.838-8.965-4.691-14.825-1.895l-24.422,11.65
			c-5.861,2.796-13.575,10.511-17.142,17.144l-14.866,27.643c-3.568,6.634-4.61,15.201-2.317,19.039l9.556,15.993
			c2.293,3.838,8.965,4.691,14.825,1.895l24.422-11.65c5.861-2.796,13.575-10.511,17.142-17.144l14.866-27.643
			c3.568-6.634,4.61-15.201,2.317-19.039L168.653,102.181z"/>
	</g>
	<g>
		<path class="st66" d="M171.653,101.651c-2.132-4.161-8.885-5.425-15.006-2.809l-25.509,10.901
			c-6.121,2.616-14.394,10.301-18.384,17.078L96.13,155.061c-3.99,6.777-5.51,15.726-3.378,19.886l8.884,17.338
			c2.132,4.161,8.885,5.425,15.006,2.809l25.509-10.901c6.121-2.616,14.394-10.301,18.384-17.078l16.625-28.239
			c3.99-6.777,5.51-15.726,3.378-19.886L171.653,101.651z"/>
	</g>
	<g>
		<path class="st67" d="M174.739,101.26c-1.95-4.491-8.764-6.192-15.141-3.779l-26.576,10.054
			c-6.378,2.413-15.218,10.035-19.645,16.939l-18.449,28.769c-4.427,6.904-6.454,16.227-4.504,20.718l8.127,18.715
			c1.95,4.491,8.764,6.192,15.141,3.779l26.576-10.054c6.378-2.413,15.218-10.035,19.645-16.939l18.449-28.769
			c4.427-6.904,6.454-16.227,4.504-20.718L174.739,101.26z"/>
	</g>
	<g>
		<path class="st68" d="M177.904,101.019c-1.747-4.829-8.6-6.992-15.227-4.807l-27.618,9.104
			c-6.628,2.185-16.043,9.711-20.923,16.724l-20.336,29.225c-4.88,7.013-7.443,16.702-5.696,21.531l7.282,20.121
			c1.747,4.829,8.6,6.992,15.227,4.807l27.618-9.104c6.628-2.185,16.043-9.711,20.923-16.724l20.336-29.225
			c4.88-7.013,7.443-16.702,5.696-21.531L177.904,101.019z"/>
	</g>
	<g>
		<path class="st69" d="M181.142,100.94c-1.523-5.172-8.39-7.823-15.26-5.892l-28.629,8.049c-6.87,1.932-16.867,9.324-22.214,16.427
			l-22.284,29.601c-5.348,7.103-8.477,17.147-6.954,22.319l6.345,21.552c1.523,5.172,8.39,7.823,15.26,5.892l28.629-8.049
			c6.87-1.932,16.867-9.324,22.214-16.427l22.284-29.601c5.348-7.103,8.477-17.147,6.954-22.319L181.142,100.94z"/>
	</g>
	<g>
		<path class="st70" d="M184.446,101.035c-1.275-5.521-8.131-8.686-15.235-7.034l-29.603,6.884
			c-7.104,1.652-17.685,8.872-23.514,16.044l-24.288,29.889c-5.829,7.173-9.554,17.558-8.278,23.078l5.315,23.005
			c1.275,5.521,8.131,8.686,15.235,7.034l29.603-6.884c7.104-1.652,17.685-8.872,23.514-16.044l24.288-29.889
			c5.829-7.173,9.554-17.558,8.278-23.078L184.446,101.035z"/>
	</g>
	<g>
		<path class="st71" d="M187.808,101.317c-1.005-5.873-7.822-9.578-15.149-8.233l-30.534,5.605
			c-7.327,1.345-18.495,8.352-24.818,15.57L90.961,144.34c-6.322,7.219-10.673,17.93-9.668,23.804l4.188,24.475
			c1.005,5.873,7.822,9.578,15.149,8.233l30.534-5.605c7.327-1.345,18.495-8.352,24.818-15.57l26.346-30.081
			c6.322-7.219,10.673-17.93,9.668-23.804L187.808,101.317z"/>
	</g>
	<g>
		<path class="st72" d="M191.219,101.799c-0.71-6.229-7.459-10.5-14.998-9.489l-31.413,4.21c-7.538,1.01-19.293,7.76-26.121,15
			l-28.453,30.169c-6.828,7.24-11.833,18.26-11.123,24.489l2.96,25.959c0.71,6.229,7.459,10.5,14.998,9.489l31.413-4.21
			c7.538-1.01,19.293-7.76,26.121-15l28.453-30.169c6.828-7.24,11.833-18.26,11.123-24.489L191.219,101.799z"/>
	</g>
	<g>
		<path class="st73" d="M194.668,102.494c-0.391-6.587-7.04-11.448-14.776-10.801l-32.235,2.695
			c-7.736,0.647-20.074,7.095-27.418,14.329l-30.605,30.146c-7.344,7.234-13.034,18.543-12.642,25.13l1.63,27.451
			c0.391,6.587,7.04,11.448,14.776,10.801l32.235-2.695c7.736-0.647,20.074-7.095,27.418-14.329l30.605-30.146
			c7.344-7.234,13.034-18.543,12.642-25.13L194.668,102.494z"/>
	</g>
	<g>
		<path class="st74" d="M198.146,103.414c-0.047-6.946-6.563-12.422-14.48-12.168l-32.992,1.057
			c-7.917,0.254-20.834,6.352-28.705,13.552l-32.797,30.003c-7.87,7.2-14.272,18.774-14.225,25.72l0.195,28.946
			c0.047,6.946,6.563,12.422,14.48,12.168l32.992-1.057c7.917-0.254,20.834-6.352,28.705-13.552l32.797-30.003
			c7.87-7.2,14.272-18.774,14.225-25.72L198.146,103.414z"/>
	</g>
	<g>
		<path class="st75" d="M201.642,104.572c0.323-7.304-6.024-13.419-14.106-13.589l-33.676-0.706
			c-8.081-0.17-21.57,5.529-29.974,12.664l-35.023,29.732c-8.405,7.135-15.545,18.949-15.869,26.253l-1.347,30.438
			c-0.323,7.304,6.024,13.419,14.106,13.589l33.676,0.706c8.081,0.17,21.57-5.529,29.974-12.664l35.023-29.732
			c8.405-7.135,15.545-18.949,15.869-26.253L201.642,104.572z"/>
	</g>
	<g>
		<path class="st76" d="M205.141,105.983c0.719-7.66-5.422-14.438-13.648-15.062l-34.278-2.598
			c-8.226-0.623-22.275,4.624-31.22,11.661l-37.276,29.324c-8.945,7.037-16.853,19.062-17.572,26.723l-2.998,31.922
			c-0.719,7.66,5.422,14.438,13.648,15.062l34.278,2.598c8.226,0.623,22.275-4.624,31.22-11.661l37.276-29.324
			c8.945-7.037,16.853-19.062,17.572-26.723L205.141,105.983z"/>
	</g>
	<g>
		<path class="st77" d="M208.632,107.658c1.142-8.013-4.754-15.476-13.103-16.584l-34.791-4.619
			c-8.349-1.108-22.945,3.634-32.437,10.538L88.75,125.765c-9.491,6.905-18.191,19.11-19.334,27.123l-4.76,33.391
			c-1.142,8.013,4.754,15.476,13.103,16.584l34.791,4.619c8.349,1.108,22.945-3.634,32.437-10.538l39.551-28.772
			c9.491-6.904,18.191-19.11,19.334-27.123L208.632,107.658z"/>
	</g>
	<g>
		<path class="st78" d="M212.1,109.612c1.592-8.36-4.018-16.53-12.466-18.155l-35.206-6.772c-8.448-1.625-23.576,2.556-33.616,9.291
			l-41.839,28.066c-10.04,6.735-19.558,19.086-21.15,27.446l-6.634,34.838c-1.592,8.36,4.018,16.53,12.466,18.155l35.206,6.772
			c8.448,1.625,23.576-2.556,33.616-9.291l41.839-28.066c10.04-6.735,19.558-19.086,21.15-27.446L212.1,109.612z"/>
	</g>
	<g>
		<path class="st79" d="M215.529,111.856c2.069-8.7-3.212-17.598-11.734-19.771l-35.513-9.058
			c-8.522-2.174-24.16,1.388-34.751,7.914l-44.134,27.197c-10.591,6.527-20.949,18.985-23.017,27.686l-8.62,36.256
			c-2.069,8.7,3.212,17.598,11.734,19.771l35.513,9.058c8.522,2.174,24.16-1.388,34.751-7.914l44.134-27.197
			c10.591-6.527,20.949-18.985,23.017-27.686L215.529,111.856z"/>
	</g>
	<g>
		<path class="st80" d="M218.904,114.405c2.573-9.032-2.333-18.675-10.901-21.43l-35.705-11.479
			c-8.568-2.755-24.694,0.128-35.835,6.405L90.039,114.06c-11.141,6.277-22.361,18.803-24.933,27.835l-10.72,37.637
			c-2.573,9.032,2.333,18.675,10.901,21.43l35.705,11.479c8.568,2.755,24.694-0.128,35.835-6.405l46.425-26.158
			c11.141-6.277,22.361-18.803,24.933-27.835L218.904,114.405z"/>
	</g>
	<g>
		<path class="st81" d="M222.207,117.27c3.104-9.352-1.38-19.76-9.964-23.127l-35.77-14.033c-8.584-3.368-25.17-1.226-36.858,4.759
			l-48.704,24.94c-11.688,5.985-23.79,18.534-26.894,27.886l-12.934,38.973c-3.104,9.352,1.38,19.76,9.964,23.127l35.77,14.033
			c8.584,3.368,25.17,1.226,36.858-4.759l48.704-24.94c11.688-5.985,23.79-18.534,26.894-27.886L222.207,117.27z"/>
	</g>
	<g>
		<path class="st82" d="M225.419,120.463c3.662-9.66-0.351-20.847-8.918-24.86L180.8,78.881c-8.567-4.013-25.583-2.676-37.813,2.972
			l-50.962,23.533c-12.23,5.647-25.232,18.172-28.894,27.832L47.87,173.473c-3.662,9.66,0.351,20.847,8.918,24.86l35.701,16.722
			c8.567,4.013,25.583,2.676,37.813-2.972l50.962-23.533c12.23-5.647,25.232-18.172,28.894-27.832L225.419,120.463z"/>
	</g>
	<g>
		<path class="st83" d="M228.522,123.997c4.248-9.953,0.756-21.934-7.76-26.624l-35.487-19.545
			c-8.516-4.69-25.926-4.222-38.69,1.041l-53.188,21.93c-12.764,5.263-26.682,17.712-30.93,27.665L44.767,169.94
			c-4.248,9.953-0.756,21.934,7.76,26.624l35.487,19.545c8.516,4.69,25.926,4.222,38.69-1.041l53.188-21.93
			c12.764-5.263,26.682-17.712,30.93-27.665L228.522,123.997z"/>
	</g>
	<g>
		<path class="st84" d="M231.496,127.883c4.86-10.228,1.941-23.015-6.486-28.414l-35.117-22.5
			c-8.427-5.399-26.194-5.866-39.481-1.037l-55.37,20.123c-13.287,4.829-28.135,17.149-32.995,27.377l-20.253,42.623
			c-4.86,10.228-1.941,23.015,6.486,28.414l35.117,22.5c8.427,5.399,26.194,5.866,39.481,1.037l55.37-20.123
			c13.287-4.829,28.135-17.149,32.995-27.377L231.496,127.883z"/>
	</g>
	<g>
		<path class="st85" d="M234.318,132.131c5.499-10.484,3.207-24.086-5.092-30.226l-34.583-25.587
			c-8.299-6.14-26.378-7.61-40.176-3.265L96.969,91.155c-13.798,4.344-29.586,16.477-35.085,26.961l-22.914,43.689
			c-5.499,10.484-3.207,24.086,5.092,30.226l34.583,25.587c8.299,6.14,26.378,7.61,40.176,3.265l57.497-18.103
			c13.798-4.344,29.586-16.477,35.085-26.961L234.318,132.131z"/>
	</g>
	<g>
		<path class="st86" d="M236.967,136.753c6.163-10.718,4.555-25.142-3.574-32.054l-33.874-28.802
			c-8.129-6.912-26.474-9.452-40.766-5.646L99.196,86.113c-14.292,3.806-31.028,15.69-37.191,26.408l-25.683,44.663
			c-6.163,10.718-4.555,25.142,3.574,32.054l33.874,28.802c8.129,6.912,26.474,9.452,40.766,5.646l59.557-15.862
			c14.292-3.806,31.028-15.69,37.191-26.408L236.967,136.753z"/>
	</g>
	<g>
		<path class="st87" d="M239.42,141.756c6.853-10.927,5.984-26.178-1.93-33.892l-32.98-32.142
			c-7.914-7.713-26.472-11.395-41.239-8.181l-61.536,13.393c-14.767,3.214-32.456,14.784-39.309,25.711L33.869,152.18
			c-6.853,10.927-5.984,26.178,1.93,33.892l32.98,32.142c7.914,7.713,26.472,11.395,41.239,8.181l61.536-13.393
			c14.767-3.214,32.456-14.784,39.309-25.711L239.42,141.756z"/>
	</g>
	<g>
		<path class="st88" d="M241.652,147.152c7.567-11.109,7.496-27.189-0.157-35.733l-31.891-35.604
			c-7.653-8.544-26.367-13.436-41.586-10.871l-63.421,10.688c-15.219,2.565-33.863,13.753-41.429,24.862l-31.531,46.292
			c-7.567,11.109-7.496,27.189,0.157,35.733l31.891,35.604c7.653,8.544,26.367,13.436,41.586,10.871l63.421-10.688
			c15.219-2.565,33.863-13.753,41.429-24.862L241.652,147.152z"/>
	</g>
	<g>
		<path class="st89" d="M243.638,152.946c8.304-11.261,9.09-28.168,1.748-37.571l-30.595-39.184
			c-7.342-9.403-26.15-15.577-41.796-13.719l-65.198,7.741c-15.646,1.858-35.241,12.591-43.544,23.852l-34.602,46.925
			c-8.304,11.261-9.09,28.168-1.748,37.571l30.595,39.184c7.342,9.403,26.15,15.577,41.796,13.719l65.198-7.741
			c15.646-1.858,35.241-12.591,43.544-23.852L243.638,152.946z"/>
	</g>
	<g>
		<path class="st90" d="M245.353,159.146c9.063-11.38,10.767-29.109,3.788-39.398l-29.084-42.875
			c-6.98-10.289-25.816-17.815-41.858-16.724l-66.85,4.546C95.305,65.787,74.765,75.99,65.702,87.37L27.936,134.79
			c-9.063,11.38-10.767,29.109-3.788,39.398l29.084,42.875c6.98,10.289,25.816,17.815,41.858,16.724l66.85-4.546
			c16.042-1.091,36.583-11.294,45.646-22.674L245.353,159.146z"/>
	</g>
	<g>
		<path class="st91" d="M246.769,165.758c9.843-11.463,12.527-30.006,5.964-41.206l-27.348-46.672
			c-6.563-11.2-25.355-20.149-41.761-19.886l-68.364,1.096c-16.406,0.263-37.882,9.857-47.724,21.32L26.52,128.178
			c-9.843,11.463-12.527,30.006-5.964,41.206l27.348,46.672c6.563,11.2,25.355,20.149,41.761,19.886l68.364-1.096
			c16.406-0.263,37.882-9.857,47.724-21.32L246.769,165.758z"/>
	</g>
	<g>
		<path class="st92" d="M247.859,172.787c10.642-11.508,14.367-30.851,8.278-42.986l-25.375-50.568
			c-6.089-12.135-24.761-22.577-41.492-23.204l-69.722-2.614c-16.731-0.627-39.128,8.275-49.77,19.782L25.43,121.15
			c-10.642,11.508-14.367,30.851-8.278,42.986l25.375,50.568c6.089,12.135,24.761,22.577,41.492,23.204l69.722,2.614
			c16.731,0.627,39.128-8.275,49.77-19.782L247.859,172.787z"/>
	</g>
	<g>
		<path class="st93" d="M248.594,180.236c11.459-11.51,16.288-31.639,10.731-44.731l-23.157-54.554
			c-5.557-13.092-24.026-25.097-41.042-26.678l-70.908-6.589c-17.016-1.581-40.314,6.543-51.773,18.053l-47.751,47.965
			c-11.459,11.51-16.288,31.639-10.731,44.731l23.157,54.554c5.557,13.092,24.026,25.097,41.042,26.678l70.908,6.589
			c17.016,1.581,40.314-6.543,51.773-18.053L248.594,180.236z"/>
	</g>
	<g>
		<path class="st94" d="M248.946,188.106c12.292-11.468,18.287-32.361,13.324-46.429l-20.684-58.622
			c-4.964-14.068-23.142-27.705-40.398-30.305l-71.904-10.833c-17.255-2.6-41.43,4.657-53.721,16.125l-51.22,47.79
			C12.052,117.299,6.056,138.192,11.02,152.26l20.684,58.622c4.964,14.068,23.142,27.705,40.398,30.305l71.904,10.833
			c17.255,2.6,41.43-4.657,53.721-16.125L248.946,188.106z"/>
	</g>
	<g>
		<path class="st95" d="M248.884,196.398c13.138-11.378,20.363-33.011,16.056-48.072l-17.946-62.763
			c-4.307-15.061-22.103-30.398-39.547-34.081l-72.692-15.349c-17.444-3.683-42.466,2.613-55.603,13.991L24.405,97.538
			C11.268,108.916,4.042,130.549,8.349,145.61l17.946,62.763c4.307,15.061,22.103,30.398,39.547,34.081l72.692,15.349
			c17.444,3.683,42.466-2.613,55.603-13.991L248.884,196.398z"/>
	</g>
	<g>
		<path class="st96" d="M248.378,205.112c13.995-11.237,22.513-33.579,18.929-49.648l-14.936-66.964
			c-3.584-16.07-20.9-33.172-38.479-38.005l-73.254-20.139c-17.579-4.833-43.413,0.407-57.408,11.644L24.911,88.825
			c-13.995,11.237-22.513,33.579-18.929,49.648l14.936,66.964c3.584,16.07,20.9,33.172,38.479,38.005l73.254,20.139
			c17.579,4.833,43.413-0.407,57.408-11.644L248.378,205.112z"/>
	</g>
	<g>
		<path class="st97" d="M247.397,214.244c14.861-11.041,24.734-34.057,21.94-51.147l-11.643-71.215
			c-2.794-17.09-19.525-36.021-37.181-42.07l-73.571-25.206c-17.655-6.049-44.26-1.964-59.121,9.077L25.892,79.693
			C11.031,90.734,1.158,113.75,3.952,130.84l11.643,71.215c2.794,17.09,19.525,36.021,37.181,42.07l73.571,25.206
			c17.655,6.049,44.26,1.964,59.121-9.077L247.397,214.244z"/>
	</g>
	<g>
		<path class="st98" d="M245.909,223.789c15.733-10.788,27.023-34.438,25.089-52.556l-8.062-75.502
			c-1.935-18.118-17.973-38.941-35.641-46.272L153.672,18.91c-17.668-7.331-44.996-4.503-60.729,6.285L27.38,70.148
			C11.647,80.935,0.357,104.586,2.291,122.704l8.062,75.502c1.935,18.118,17.973,38.941,35.641,46.272l73.624,30.549
			c17.668,7.331,44.996,4.503,60.729-6.285L245.909,223.789z"/>
	</g>
	<g>
		<path class="st99" d="M243.884,233.741c16.608-10.473,29.376-34.712,28.372-53.864l-4.183-79.811
			c-1.004-19.153-16.235-41.924-33.847-50.604l-73.392-36.169c-17.612-8.68-45.611-7.212-62.219,3.261L29.405,60.196
			C12.797,70.669,0.029,94.908,1.033,114.06l4.183,79.811c1.004,19.152,16.235,41.924,33.847,50.604l73.392,36.169
			c17.612,8.68,45.611,7.212,62.219-3.261L243.884,233.741z"/>
	</g>
	<g>
		<path class="st100" d="M241.288,244.09c17.483-10.094,31.788-34.871,31.788-55.059v-84.127c0-20.188-14.305-44.965-31.788-55.059
			L168.433,7.783c-17.483-10.094-46.093-10.094-63.576,0L32.001,49.846C14.517,59.94,0.212,84.717,0.212,104.905v84.127
			c0,20.188,14.305,44.965,31.788,55.059l72.856,42.063c17.483,10.094,46.093,10.094,63.576,0L241.288,244.09z"/>
	</g>
</g>
</svg>
