<?xml version="1.0" encoding="utf-8"?>
<!-- Generator: Adobe Illustrator 22.0.0, SVG Export Plug-In . SVG Version: 6.00 Build 0)  -->
<svg version="1.1" id="Layer_1" xmlns="http://www.w3.org/2000/svg" xmlns:xlink="http://www.w3.org/1999/xlink" x="0px" y="0px"
	 viewBox="0 0 268.674 301.198" style="enable-background:new 0 0 268.674 301.198;" xml:space="preserve">
<style type="text/css">
	.st0{fill:none;stroke:#FFFFFF;stroke-width:0.037;stroke-miterlimit:10;}
	.st1{fill:none;stroke:#FFFFFF;stroke-width:0.0438;stroke-miterlimit:10;}
	.st2{fill:none;stroke:#FFFFFF;stroke-width:0.0506;stroke-miterlimit:10;}
	.st3{fill:none;stroke:#FFFFFF;stroke-width:0.0574;stroke-miterlimit:10;}
	.st4{fill:none;stroke:#FFFFFF;stroke-width:0.0642;stroke-miterlimit:10;}
	.st5{fill:none;stroke:#FFFFFF;stroke-width:0.071;stroke-miterlimit:10;}
	.st6{fill:none;stroke:#FFFFFF;stroke-width:0.0778;stroke-miterlimit:10;}
	.st7{fill:none;stroke:#FFFFFF;stroke-width:0.0846;stroke-miterlimit:10;}
	.st8{fill:none;stroke:#FFFFFF;stroke-width:0.0914;stroke-miterlimit:10;}
	.st9{fill:none;stroke:#FFFFFF;stroke-width:0.0982;stroke-miterlimit:10;}
	.st10{fill:none;stroke:#FFFFFF;stroke-width:0.105;stroke-miterlimit:10;}
	.st11{fill:none;stroke:#FFFFFF;stroke-width:0.1118;stroke-miterlimit:10;}
	.st12{fill:none;stroke:#FFFFFF;stroke-width:0.1186;stroke-miterlimit:10;}
	.st13{fill:none;stroke:#FFFFFF;stroke-width:0.1254;stroke-miterlimit:10;}
	.st14{fill:none;stroke:#FFFFFF;stroke-width:0.1322;stroke-miterlimit:10;}
	.st15{fill:none;stroke:#FFFFFF;stroke-width:0.1391;stroke-miterlimit:10;}
	.st16{fill:none;stroke:#FFFFFF;stroke-width:0.1459;stroke-miterlimit:10;}
	.st17{fill:none;stroke:#FFFFFF;stroke-width:0.1527;stroke-miterlimit:10;}
	.st18{fill:none;stroke:#FFFFFF;stroke-width:0.1595;stroke-miterlimit:10;}
	.st19{fill:none;stroke:#FFFFFF;stroke-width:0.1663;stroke-miterlimit:10;}
	.st20{fill:none;stroke:#FFFFFF;stroke-width:0.1731;stroke-miterlimit:10;}
	.st21{fill:none;stroke:#FFFFFF;stroke-width:0.1799;stroke-miterlimit:10;}
	.st22{fill:none;stroke:#FFFFFF;stroke-width:0.1867;stroke-miterlimit:10;}
	.st23{fill:none;stroke:#FFFFFF;stroke-width:0.1935;stroke-miterlimit:10;}
	.st24{fill:none;stroke:#FFFFFF;stroke-width:0.2003;stroke-miterlimit:10;}
	.st25{fill:none;stroke:#FFFFFF;stroke-width:0.2071;stroke-miterlimit:10;}
	.st26{fill:none;stroke:#FFFFFF;stroke-width:0.2139;stroke-miterlimit:10;}
	.st27{fill:none;stroke:#FFFFFF;stroke-width:0.2207;stroke-miterlimit:10;}
	.st28{fill:none;stroke:#FFFFFF;stroke-width:0.2275;stroke-miterlimit:10;}
	.st29{fill:none;stroke:#FFFFFF;stroke-width:0.2343;stroke-miterlimit:10;}
	.st30{fill:none;stroke:#FFFFFF;stroke-width:0.2412;stroke-miterlimit:10;}
	.st31{fill:none;stroke:#FFFFFF;stroke-width:0.248;stroke-miterlimit:10;}
	.st32{fill:none;stroke:#FFFFFF;stroke-width:0.2548;stroke-miterlimit:10;}
	.st33{fill:none;stroke:#FFFFFF;stroke-width:0.2616;stroke-miterlimit:10;}
	.st34{fill:none;stroke:#FFFFFF;stroke-width:0.2684;stroke-miterlimit:10;}
	.st35{fill:none;stroke:#FFFFFF;stroke-width:0.2752;stroke-miterlimit:10;}
	.st36{fill:none;stroke:#FFFFFF;stroke-width:0.282;stroke-miterlimit:10;}
	.st37{fill:none;stroke:#FFFFFF;stroke-width:0.2888;stroke-miterlimit:10;}
	.st38{fill:none;stroke:#FFFFFF;stroke-width:0.2956;stroke-miterlimit:10;}
	.st39{fill:none;stroke:#FFFFFF;stroke-width:0.3024;stroke-miterlimit:10;}
	.st40{fill:none;stroke:#FFFFFF;stroke-width:0.3092;stroke-miterlimit:10;}
	.st41{fill:none;stroke:#FFFFFF;stroke-width:0.316;stroke-miterlimit:10;}
	.st42{fill:none;stroke:#FFFFFF;stroke-width:0.3228;stroke-miterlimit:10;}
	.st43{fill:none;stroke:#FFFFFF;stroke-width:0.3296;stroke-miterlimit:10;}
	.st44{fill:none;stroke:#FFFFFF;stroke-width:0.3364;stroke-miterlimit:10;}
	.st45{fill:none;stroke:#FFFFFF;stroke-width:0.3433;stroke-miterlimit:10;}
	.st46{fill:none;stroke:#FFFFFF;stroke-width:0.3501;stroke-miterlimit:10;}
	.st47{fill:none;stroke:#FFFFFF;stroke-width:0.3569;stroke-miterlimit:10;}
	.st48{fill:none;stroke:#FFFFFF;stroke-width:0.3637;stroke-miterlimit:10;}
	.st49{fill:none;stroke:#FFFFFF;stroke-width:0.3705;stroke-miterlimit:10;}
	.st50{fill:none;stroke:#FFFFFF;stroke-width:0.3773;stroke-miterlimit:10;}
	.st51{fill:none;stroke:#FFFFFF;stroke-width:0.3841;stroke-miterlimit:10;}
	.st52{fill:none;stroke:#FFFFFF;stroke-width:0.3909;stroke-miterlimit:10;}
	.st53{fill:none;stroke:#FFFFFF;stroke-width:0.3977;stroke-miterlimit:10;}
	.st54{fill:none;stroke:#FFFFFF;stroke-width:0.4045;stroke-miterlimit:10;}
	.st55{fill:none;stroke:#FFFFFF;stroke-width:0.4113;stroke-miterlimit:10;}
	.st56{fill:none;stroke:#FFFFFF;stroke-width:0.4181;stroke-miterlimit:10;}
	.st57{fill:none;stroke:#FFFFFF;stroke-width:0.4249;stroke-miterlimit:10;}
	.st58{fill:none;stroke:#FFFFFF;stroke-width:0.4317;stroke-miterlimit:10;}
	.st59{fill:none;stroke:#FFFFFF;stroke-width:0.4385;stroke-miterlimit:10;}
	.st60{fill:none;stroke:#FFFFFF;stroke-width:0.4454;stroke-miterlimit:10;}
	.st61{fill:none;stroke:#FFFFFF;stroke-width:0.4522;stroke-miterlimit:10;}
	.st62{fill:none;stroke:#FFFFFF;stroke-width:0.459;stroke-miterlimit:10;}
	.st63{fill:none;stroke:#FFFFFF;stroke-width:0.4658;stroke-miterlimit:10;}
	.st64{fill:none;stroke:#FFFFFF;stroke-width:0.4726;stroke-miterlimit:10;}
	.st65{fill:none;stroke:#FFFFFF;stroke-width:0.4794;stroke-miterlimit:10;}
	.st66{fill:none;stroke:#FFFFFF;stroke-width:0.4862;stroke-miterlimit:10;}
	.st67{fill:none;stroke:#FFFFFF;stroke-width:0.493;stroke-miterlimit:10;}
	.st68{fill:none;stroke:#FFFFFF;stroke-width:0.4998;stroke-miterlimit:10;}
	.st69{fill:none;stroke:#FFFFFF;stroke-width:0.5066;stroke-miterlimit:10;}
	.st70{fill:none;stroke:#FFFFFF;stroke-width:0.5134;stroke-miterlimit:10;}
	.st71{fill:none;stroke:#FFFFFF;stroke-width:0.5202;stroke-miterlimit:10;}
	.st72{fill:none;stroke:#FFFFFF;stroke-width:0.527;stroke-miterlimit:10;}
	.st73{fill:none;stroke:#FFFFFF;stroke-width:0.5338;stroke-miterlimit:10;}
	.st74{fill:none;stroke:#FFFFFF;stroke-width:0.5406;stroke-miterlimit:10;}
	.st75{fill:none;stroke:#FFFFFF;stroke-width:0.5475;stroke-miterlimit:10;}
	.st76{fill:none;stroke:#FFFFFF;stroke-width:0.5543;stroke-miterlimit:10;}
</style>
<g>
	<polygon class="st0" points="175.192,301.176 73.578,258.683 8.914,279.006 0.019,118.922 56.831,116.151 86.51,0.028 
		199.21,64.692 268.655,48.573 267.569,225.427 175.192,301.176 	"/>
	<polygon class="st1" points="86.802,1.462 158.905,42.608 198.883,65.313 267.887,49.319 267.086,128.938 266.571,225.156 
		174.873,299.613 73.89,257.924 9.643,278.131 1.143,119.505 57.306,116.541 	"/>
	<polygon class="st2" points="87.094,2.897 158.799,43.589 198.555,65.934 267.12,50.066 266.008,129.179 265.572,224.885 
		174.553,298.049 74.202,257.166 10.373,277.256 2.267,120.089 57.78,116.932 	"/>
	<polygon class="st3" points="87.386,4.331 158.692,44.57 198.228,66.555 266.352,50.813 264.931,129.42 264.574,224.614 
		174.234,296.486 74.514,256.407 11.102,276.38 3.391,120.673 58.255,117.323 	"/>
	<polygon class="st4" points="87.677,5.765 158.586,45.551 197.901,67.176 265.584,51.56 263.853,129.66 263.576,224.343 
		173.915,294.923 74.826,255.648 11.831,275.505 4.515,121.256 58.73,117.714 	"/>
	<polygon class="st5" points="87.969,7.199 158.48,46.531 197.573,67.798 264.816,52.307 262.776,129.901 262.578,224.072 
		173.595,293.359 75.139,254.889 12.56,274.63 5.639,121.84 59.204,118.104 	"/>
	<polygon class="st6" points="88.261,8.634 158.373,47.512 197.246,68.419 264.048,53.054 261.698,130.142 261.579,223.801 
		173.276,291.796 75.451,254.131 13.29,273.755 6.763,122.423 59.679,118.495 	"/>
	<polygon class="st7" points="88.553,10.068 158.267,48.493 196.918,69.04 263.28,53.801 260.621,130.383 260.581,223.53 
		172.957,290.232 75.763,253.372 14.019,272.88 7.887,123.007 60.154,118.886 	"/>
	<polygon class="st8" points="88.844,11.502 158.16,49.474 196.591,69.661 262.512,54.548 259.544,130.624 259.583,223.259 
		172.637,288.669 76.075,252.613 14.748,272.005 9.011,123.59 60.628,119.277 	"/>
	<polygon class="st9" points="89.136,12.937 158.054,50.455 196.264,70.282 261.744,55.295 258.466,130.865 258.585,222.989 
		172.318,287.106 76.387,251.855 15.478,271.13 10.134,124.174 61.103,119.668 	"/>
	<polygon class="st10" points="89.428,14.371 157.947,51.436 195.936,70.903 260.976,56.042 257.389,131.105 257.586,222.718 
		171.999,285.542 76.699,251.096 16.207,270.254 11.258,124.758 61.577,120.058 	"/>
	<polygon class="st11" points="89.719,15.805 157.841,52.416 195.609,71.525 260.209,56.789 256.311,131.346 256.588,222.447 
		171.679,283.979 77.011,250.337 16.936,269.379 12.382,125.341 62.052,120.449 	"/>
	<polygon class="st12" points="90.011,17.239 157.734,53.397 195.282,72.146 259.441,57.535 255.234,131.587 255.59,222.176 
		171.36,282.415 77.324,249.579 17.666,268.504 13.506,125.925 62.527,120.84 	"/>
	<polygon class="st13" points="90.303,18.674 157.628,54.378 194.954,72.767 258.673,58.282 254.156,131.828 254.592,221.905 
		171.041,280.852 77.636,248.82 18.395,267.629 14.63,126.508 63.001,121.231 	"/>
	<polygon class="st14" points="90.595,20.108 157.522,55.359 194.627,73.388 257.905,59.029 253.079,132.069 253.593,221.634 
		170.721,279.288 77.948,248.061 19.124,266.754 15.754,127.092 63.476,121.621 	"/>
	<polygon class="st15" points="90.886,21.542 157.415,56.34 194.299,74.009 257.137,59.776 252.001,132.31 252.595,221.363 
		170.402,277.725 78.26,247.302 19.853,265.879 16.878,127.675 63.95,122.012 	"/>
	<polygon class="st16" points="91.178,22.976 157.309,57.321 193.972,74.63 256.369,60.523 250.924,132.55 251.597,221.092 
		170.083,276.162 78.572,246.544 20.583,265.004 18.002,128.259 64.425,122.403 	"/>
	<polygon class="st17" points="91.47,24.411 157.202,58.301 193.645,75.251 255.601,61.27 249.847,132.791 250.599,220.821 
		169.763,274.598 78.884,245.785 21.312,264.128 19.126,128.843 64.9,122.794 	"/>
	<polygon class="st18" points="91.761,25.845 157.096,59.282 193.317,75.873 254.833,62.017 248.769,133.032 249.6,220.55 
		169.444,273.035 79.197,245.026 22.041,263.253 20.249,129.426 65.374,123.185 	"/>
	<polygon class="st19" points="92.053,27.279 156.989,60.263 192.99,76.494 254.065,62.764 247.692,133.273 248.602,220.279 
		169.125,271.471 79.509,244.268 22.771,262.378 21.373,130.01 65.849,123.575 	"/>
	<polygon class="st20" points="92.345,28.714 156.883,61.244 192.662,77.115 253.297,63.511 246.614,133.514 247.604,220.008 
		168.805,269.908 79.821,243.509 23.5,261.503 22.497,130.593 66.324,123.966 	"/>
	<polygon class="st21" points="92.637,30.148 156.776,62.225 192.335,77.736 252.53,64.258 245.537,133.755 246.605,219.737 
		168.486,268.344 80.133,242.75 24.229,260.628 23.621,131.177 66.798,124.357 	"/>
	<polygon class="st22" points="92.928,31.582 156.67,63.205 192.008,78.357 251.762,65.005 244.459,133.995 245.607,219.466 
		168.167,266.781 80.445,241.991 24.958,259.753 24.745,131.76 67.273,124.748 	"/>
	<polygon class="st23" points="93.22,33.016 156.563,64.186 191.68,78.978 250.994,65.751 243.382,134.236 244.609,219.195 
		167.847,265.218 80.757,241.233 25.688,258.878 25.869,132.344 67.747,125.138 	"/>
	<polygon class="st24" points="93.512,34.451 156.457,65.167 191.353,79.6 250.226,66.498 242.304,134.477 243.611,218.924 
		167.528,263.654 81.07,240.474 26.417,258.002 26.993,132.928 68.222,125.529 	"/>
	<polygon class="st25" points="93.803,35.885 156.351,66.148 191.026,80.221 249.458,67.245 241.227,134.718 242.612,218.653 
		167.208,262.091 81.382,239.715 27.146,257.127 28.117,133.511 68.697,125.92 	"/>
	<polygon class="st26" points="94.095,37.319 156.244,67.129 190.698,80.842 248.69,67.992 240.15,134.959 241.614,218.382 
		166.889,260.527 81.694,238.957 27.876,256.252 29.241,134.095 69.171,126.311 	"/>
	<polygon class="st27" points="94.387,38.753 156.138,68.11 190.371,81.463 247.922,68.739 239.072,135.2 240.616,218.111 
		166.57,258.964 82.006,238.198 28.605,255.377 30.364,134.678 69.646,126.702 	"/>
	<polygon class="st28" points="94.679,40.188 156.031,69.09 190.043,82.084 247.154,69.486 237.995,135.44 239.618,217.84 
		166.25,257.401 82.318,237.439 29.334,254.502 31.488,135.262 70.12,127.092 	"/>
	<polygon class="st29" points="94.97,41.622 155.925,70.071 189.716,82.705 246.386,70.233 236.917,135.681 238.619,217.569 
		165.931,255.837 82.63,236.68 30.063,253.627 32.612,135.845 70.595,127.483 	"/>
	<polygon class="st30" points="95.262,43.056 155.818,71.052 189.389,83.326 245.619,70.98 235.84,135.922 237.621,217.298 
		165.612,254.274 82.942,235.922 30.793,252.751 33.736,136.429 71.07,127.874 	"/>
	<polygon class="st31" points="95.554,44.491 155.712,72.033 189.061,83.948 244.851,71.727 234.762,136.163 236.623,217.027 
		165.292,252.71 83.255,235.163 31.522,251.876 34.86,137.013 71.544,128.265 	"/>
	<polygon class="st32" points="95.845,45.925 155.605,73.014 188.734,84.569 244.083,72.474 233.685,136.404 235.625,216.756 
		164.973,251.147 83.567,234.404 32.251,251.001 35.984,137.596 72.019,128.656 	"/>
	<polygon class="st33" points="96.137,47.359 155.499,73.995 188.406,85.19 243.315,73.221 232.607,136.645 234.626,216.485 
		164.654,249.583 83.879,233.646 32.981,250.126 37.108,138.18 72.494,129.046 	"/>
	<polygon class="st34" points="96.429,48.793 155.393,74.975 188.079,85.811 242.547,73.967 231.53,136.885 233.628,216.214 
		164.334,248.02 84.191,232.887 33.71,249.251 38.232,138.763 72.968,129.437 	"/>
	<polygon class="st35" points="96.721,50.228 155.286,75.956 187.752,86.432 241.779,74.714 230.453,137.126 232.63,215.943 
		164.015,246.457 84.503,232.128 34.439,248.376 39.356,139.347 73.443,129.828 	"/>
	<polygon class="st36" points="97.012,51.662 155.18,76.937 187.424,87.053 241.011,75.461 229.375,137.367 231.632,215.672 
		163.696,244.893 84.815,231.369 35.168,247.501 40.479,139.93 73.917,130.219 	"/>
	<polygon class="st37" points="97.304,53.096 155.073,77.918 187.097,87.675 240.243,76.208 228.298,137.608 230.633,215.401 
		163.376,243.33 85.128,230.611 35.898,246.625 41.603,140.514 74.392,130.609 	"/>
	<polygon class="st38" points="97.596,54.53 154.967,78.899 186.77,88.296 239.475,76.955 227.22,137.849 229.635,215.13 
		163.057,241.766 85.44,229.852 36.627,245.75 42.727,141.098 74.867,131 	"/>
	<polygon class="st39" points="97.887,55.965 154.86,79.88 186.442,88.917 238.707,77.702 226.143,138.09 228.637,214.859 
		162.738,240.203 85.752,229.093 37.356,244.875 43.851,141.681 75.341,131.391 	"/>
	<polygon class="st40" points="98.179,57.399 154.754,80.86 186.115,89.538 237.94,78.449 225.065,138.33 227.639,214.588 
		162.418,238.639 86.064,228.335 38.086,244 44.975,142.265 75.816,131.782 	"/>
	<polygon class="st41" points="98.471,58.833 154.647,81.841 185.787,90.159 237.172,79.196 223.988,138.571 226.64,214.317 
		162.099,237.076 86.376,227.576 38.815,243.125 46.099,142.848 76.291,132.173 	"/>
	<polygon class="st42" points="98.763,60.267 154.541,82.822 185.46,90.78 236.404,79.943 222.911,138.812 225.642,214.046 
		161.78,235.513 86.688,226.817 39.544,242.25 47.223,143.432 76.765,132.563 	"/>
	<polygon class="st43" points="99.054,61.702 154.434,83.803 185.133,91.402 235.636,80.69 221.833,139.053 224.644,213.775 
		161.46,233.949 87,226.058 40.273,241.375 48.347,144.015 77.24,132.954 	"/>
	<polygon class="st44" points="99.346,63.136 154.328,84.784 184.805,92.023 234.868,81.437 220.756,139.294 223.646,213.504 
		161.141,232.386 87.313,225.3 41.003,240.499 49.471,144.599 77.714,133.345 	"/>
	<polygon class="st45" points="99.638,64.57 154.222,85.765 184.478,92.644 234.1,82.183 219.678,139.535 222.647,213.233 
		160.821,230.822 87.625,224.541 41.732,239.624 50.594,145.183 78.189,133.736 	"/>
	<polygon class="st46" points="99.929,66.005 154.115,86.745 184.15,93.265 233.332,82.93 218.601,139.775 221.649,212.962 
		160.502,229.259 87.937,223.782 42.461,238.749 51.718,145.766 78.664,134.126 	"/>
	<polygon class="st47" points="100.221,67.439 154.009,87.726 183.823,93.886 232.564,83.677 217.523,140.016 220.651,212.691 
		160.183,227.695 88.249,223.024 43.191,237.874 52.842,146.35 79.138,134.517 	"/>
	<polygon class="st48" points="100.513,68.873 153.902,88.707 183.496,94.507 231.796,84.424 216.446,140.257 219.653,212.42 
		159.863,226.132 88.561,222.265 43.92,236.999 53.966,146.933 79.613,134.908 	"/>
	<polygon class="st49" points="100.805,70.307 153.796,89.688 183.168,95.128 231.029,85.171 215.368,140.498 218.654,212.149 
		159.544,224.569 88.873,221.506 44.649,236.124 55.09,147.517 80.087,135.299 	"/>
	<polygon class="st50" points="101.096,71.742 153.689,90.669 182.841,95.75 230.261,85.918 214.291,140.739 217.656,211.878 
		159.225,223.005 89.186,220.747 45.379,235.249 56.214,148.1 80.562,135.69 	"/>
	<polygon class="st51" points="101.388,73.176 153.583,91.65 182.514,96.371 229.493,86.665 213.214,140.98 216.658,211.607 
		158.905,221.442 89.498,219.989 46.108,234.373 57.338,148.684 81.037,136.08 	"/>
	<polygon class="st52" points="101.68,74.61 153.476,92.63 182.186,96.992 228.725,87.412 212.136,141.22 215.659,211.336 
		158.586,219.878 89.81,219.23 46.837,233.498 58.462,149.268 81.511,136.471 	"/>
	<polygon class="st53" points="101.971,76.044 153.37,93.611 181.859,97.613 227.957,88.159 211.059,141.461 214.661,211.065 
		158.267,218.315 90.122,218.471 47.566,232.623 59.586,149.851 81.986,136.862 	"/>
	<polygon class="st54" points="102.263,77.479 153.264,94.592 181.531,98.234 227.189,88.906 209.981,141.702 213.663,210.794 
		157.947,216.752 90.434,217.713 48.296,231.748 60.709,150.435 82.461,137.253 	"/>
	<polygon class="st55" points="102.555,78.913 153.157,95.573 181.204,98.855 226.421,89.653 208.904,141.943 212.665,210.523 
		157.628,215.188 90.746,216.954 49.025,230.873 61.833,151.018 82.935,137.643 	"/>
	<polygon class="st56" points="102.847,80.347 153.051,96.554 180.877,99.477 225.653,90.399 207.826,142.184 211.666,210.252 
		157.309,213.625 91.059,216.195 49.754,229.998 62.957,151.602 83.41,138.034 	"/>
	<polygon class="st57" points="103.138,81.782 152.944,97.534 180.549,100.098 224.885,91.146 206.749,142.425 210.668,209.981 
		156.989,212.061 91.371,215.436 50.484,229.122 64.081,152.185 83.884,138.425 	"/>
	<polygon class="st58" points="103.43,83.216 152.838,98.515 180.222,100.719 224.117,91.893 205.671,142.665 209.67,209.71 
		156.67,210.498 91.683,214.678 51.213,228.247 65.205,152.769 84.359,138.816 	"/>
	<polygon class="st59" points="103.722,84.65 152.731,99.496 179.895,101.34 223.35,92.64 204.594,142.906 208.672,209.439 
		156.351,208.934 91.995,213.919 51.942,227.372 66.329,153.353 84.834,139.207 	"/>
	<polygon class="st60" points="104.013,86.084 152.625,100.477 179.567,101.961 222.582,93.387 203.517,143.147 207.673,209.168 
		156.031,207.371 92.307,213.16 52.671,226.497 67.453,153.936 85.308,139.597 	"/>
	<polygon class="st61" points="104.305,87.519 152.518,101.458 179.24,102.582 221.814,94.134 202.439,143.388 206.675,208.897 
		155.712,205.808 92.619,212.402 53.401,225.622 68.577,154.52 85.783,139.988 	"/>
	<polygon class="st62" points="104.597,88.953 152.412,102.439 178.912,103.203 221.046,94.881 201.362,143.629 205.677,208.626 
		155.393,204.244 92.931,211.643 54.13,224.747 69.701,155.103 86.257,140.379 	"/>
	<polygon class="st63" points="104.889,90.387 152.305,103.419 178.585,103.825 220.278,95.628 200.284,143.87 204.679,208.355 
		155.073,202.681 93.244,210.884 54.859,223.872 70.824,155.687 86.732,140.77 	"/>
	<polygon class="st64" points="105.18,91.821 152.199,104.4 178.258,104.446 219.51,96.375 199.207,144.11 203.68,208.084 
		154.754,201.117 93.556,210.126 55.589,222.996 71.948,156.27 87.207,141.161 	"/>
	<polygon class="st65" points="105.472,93.256 152.093,105.381 177.93,105.067 218.742,97.122 198.129,144.351 202.682,207.813 
		154.434,199.554 93.868,209.367 56.318,222.121 73.072,156.854 87.681,141.551 	"/>
	<polygon class="st66" points="105.764,94.69 151.986,106.362 177.603,105.688 217.974,97.869 197.052,144.592 201.684,207.542 
		154.115,197.99 94.18,208.608 57.047,221.246 74.196,157.438 88.156,141.942 	"/>
	<polygon class="st67" points="106.055,96.124 151.88,107.343 177.275,106.309 217.206,98.615 195.974,144.833 200.686,207.271 
		153.796,196.427 94.492,207.849 57.776,220.371 75.32,158.021 88.631,142.333 	"/>
	<polygon class="st68" points="106.347,97.559 151.773,108.324 176.948,106.93 216.439,99.362 194.897,145.074 199.687,207 
		153.476,194.864 94.804,207.091 58.506,219.496 76.444,158.605 89.105,142.724 	"/>
	<polygon class="st69" points="106.639,98.993 151.667,109.304 176.621,107.552 215.671,100.109 193.82,145.315 198.689,206.729 
		153.157,193.3 95.117,206.332 59.235,218.621 77.568,159.188 89.58,143.114 	"/>
	<polygon class="st70" points="106.931,100.427 151.56,110.285 176.293,108.173 214.903,100.856 192.742,145.555 197.691,206.458 
		152.838,191.737 95.429,205.573 59.964,217.746 78.692,159.772 90.054,143.505 	"/>
	<polygon class="st71" points="107.222,101.861 151.454,111.266 175.966,108.794 214.135,101.603 191.665,145.796 196.693,206.187 
		152.518,190.173 95.741,204.815 60.694,216.87 79.815,160.355 90.529,143.896 	"/>
	<polygon class="st72" points="107.514,103.296 151.347,112.247 175.639,109.415 213.367,102.35 190.587,146.037 195.694,205.916 
		152.199,188.61 96.053,204.056 61.423,215.995 80.939,160.939 91.004,144.287 	"/>
	<polygon class="st73" points="107.806,104.73 151.241,113.228 175.311,110.036 212.599,103.097 189.51,146.278 194.696,205.645 
		151.88,187.046 96.365,203.297 62.152,215.12 82.063,161.523 91.478,144.678 	"/>
	<polygon class="st74" points="108.097,106.164 151.135,114.209 174.984,110.657 211.831,103.844 188.432,146.519 193.698,205.374 
		151.56,185.483 96.677,202.538 62.881,214.245 83.187,162.106 91.953,145.068 	"/>
	<polygon class="st75" points="108.389,107.598 151.028,115.189 174.656,111.278 211.063,104.591 187.355,146.76 192.7,205.103 
		151.241,183.92 96.989,201.78 63.611,213.37 84.311,162.69 92.428,145.459 	"/>
	<polygon class="st76" points="191.701,204.832 150.922,182.356 64.34,212.495 108.681,109.033 150.922,116.17 210.295,105.338 
		186.277,147 191.701,204.832 	"/>
</g>
</svg>
