<?xml version="1.0" encoding="utf-8"?>
<!-- Generator: Adobe Illustrator 22.0.0, SVG Export Plug-In . SVG Version: 6.00 Build 0)  -->
<svg version="1.1" id="Layer_1" xmlns="http://www.w3.org/2000/svg" xmlns:xlink="http://www.w3.org/1999/xlink" x="0px" y="0px"
	 viewBox="0 0 258.821 296.351" style="enable-background:new 0 0 258.821 296.351;" xml:space="preserve">
<style type="text/css">
	.st0{fill:none;stroke:#FFFFFF;stroke-width:0.2125;stroke-miterlimit:10;}
</style>
<g>
	<circle class="st0" cx="100.598" cy="38.757" r="38.651"/>
	<circle class="st0" cx="102.94" cy="40.41" r="38.651"/>
	<circle class="st0" cx="105.283" cy="42.064" r="38.651"/>
	<circle class="st0" cx="107.625" cy="43.717" r="38.651"/>
	<circle class="st0" cx="109.968" cy="45.371" r="38.651"/>
	<circle class="st0" cx="112.31" cy="47.024" r="38.651"/>
	<circle class="st0" cx="114.653" cy="48.678" r="38.651"/>
	<circle class="st0" cx="116.995" cy="50.331" r="38.651"/>
	<circle class="st0" cx="119.338" cy="51.985" r="38.651"/>
	<circle class="st0" cx="121.68" cy="53.638" r="38.651"/>
	<circle class="st0" cx="124.023" cy="55.292" r="38.651"/>
	<circle class="st0" cx="126.365" cy="56.945" r="38.651"/>
	<circle class="st0" cx="128.708" cy="58.599" r="38.651"/>
	<circle class="st0" cx="131.05" cy="60.252" r="38.651"/>
	<circle class="st0" cx="133.392" cy="61.906" r="38.651"/>
	<circle class="st0" cx="135.735" cy="63.559" r="38.651"/>
	<circle class="st0" cx="138.077" cy="65.213" r="38.651"/>
	<circle class="st0" cx="140.42" cy="66.866" r="38.651"/>
	<circle class="st0" cx="142.762" cy="68.52" r="38.651"/>
	<circle class="st0" cx="145.105" cy="70.173" r="38.651"/>
	<circle class="st0" cx="147.447" cy="71.827" r="38.651"/>
	<circle class="st0" cx="149.79" cy="73.48" r="38.651"/>
	<circle class="st0" cx="152.132" cy="75.134" r="38.651"/>
	<circle class="st0" cx="154.475" cy="76.788" r="38.651"/>
	<circle class="st0" cx="156.817" cy="78.441" r="38.651"/>
	<circle class="st0" cx="159.16" cy="80.095" r="38.651"/>
	<circle class="st0" cx="161.502" cy="81.748" r="38.651"/>
	<circle class="st0" cx="163.845" cy="83.402" r="38.651"/>
	<circle class="st0" cx="166.187" cy="85.055" r="38.651"/>
	<circle class="st0" cx="168.529" cy="86.709" r="38.651"/>
	<circle class="st0" cx="170.872" cy="88.362" r="38.651"/>
	<circle class="st0" cx="173.214" cy="90.016" r="38.651"/>
	<circle class="st0" cx="175.557" cy="91.669" r="38.651"/>
	<circle class="st0" cx="177.899" cy="93.323" r="38.651"/>
	<circle class="st0" cx="180.242" cy="94.976" r="38.651"/>
	<circle class="st0" cx="182.584" cy="96.63" r="38.651"/>
	<circle class="st0" cx="184.927" cy="98.283" r="38.651"/>
	<circle class="st0" cx="187.269" cy="99.937" r="38.651"/>
	<circle class="st0" cx="189.612" cy="101.59" r="38.651"/>
	<circle class="st0" cx="191.954" cy="103.244" r="38.651"/>
	<circle class="st0" cx="194.297" cy="104.897" r="38.651"/>
	<circle class="st0" cx="196.639" cy="106.551" r="38.651"/>
	<circle class="st0" cx="198.981" cy="108.204" r="38.651"/>
	<circle class="st0" cx="201.324" cy="109.858" r="38.651"/>
	<circle class="st0" cx="203.666" cy="111.511" r="38.651"/>
	<circle class="st0" cx="206.009" cy="113.165" r="38.651"/>
	<circle class="st0" cx="208.351" cy="114.818" r="38.651"/>
	<circle class="st0" cx="210.694" cy="116.472" r="38.651"/>
	<circle class="st0" cx="213.036" cy="118.125" r="38.651"/>
	<circle class="st0" cx="215.379" cy="119.779" r="38.651"/>
	<circle class="st0" cx="217.721" cy="121.432" r="38.651"/>
	<circle class="st0" cx="220.064" cy="123.086" r="38.651"/>
	<circle class="st0" cx="216.509" cy="124.133" r="38.651"/>
	<circle class="st0" cx="212.954" cy="125.18" r="38.651"/>
	<circle class="st0" cx="209.399" cy="126.227" r="38.651"/>
	<circle class="st0" cx="205.844" cy="127.275" r="38.651"/>
	<circle class="st0" cx="202.288" cy="128.322" r="38.651"/>
	<circle class="st0" cx="198.733" cy="129.369" r="38.651"/>
	<circle class="st0" cx="195.178" cy="130.416" r="38.651"/>
	<circle class="st0" cx="191.623" cy="131.463" r="38.651"/>
	<circle class="st0" cx="188.068" cy="132.511" r="38.651"/>
	<circle class="st0" cx="184.513" cy="133.558" r="38.651"/>
	<circle class="st0" cx="180.958" cy="134.605" r="38.651"/>
	<circle class="st0" cx="177.403" cy="135.652" r="38.651"/>
	<circle class="st0" cx="173.848" cy="136.699" r="38.651"/>
	<circle class="st0" cx="170.293" cy="137.747" r="38.651"/>
	<circle class="st0" cx="166.738" cy="138.794" r="38.651"/>
	<circle class="st0" cx="163.183" cy="139.841" r="38.651"/>
	<circle class="st0" cx="159.628" cy="140.888" r="38.651"/>
	<circle class="st0" cx="156.073" cy="141.936" r="38.651"/>
	<circle class="st0" cx="152.518" cy="142.983" r="38.651"/>
	<circle class="st0" cx="148.963" cy="144.03" r="38.651"/>
	<circle class="st0" cx="145.408" cy="145.077" r="38.651"/>
	<circle class="st0" cx="141.853" cy="146.124" r="38.651"/>
	<circle class="st0" cx="138.298" cy="147.172" r="38.651"/>
	<circle class="st0" cx="134.743" cy="148.219" r="38.651"/>
	<circle class="st0" cx="131.188" cy="149.266" r="38.651"/>
	<circle class="st0" cx="127.633" cy="150.313" r="38.651"/>
	<circle class="st0" cx="124.078" cy="151.361" r="38.651"/>
	<circle class="st0" cx="120.523" cy="152.408" r="38.651"/>
	<circle class="st0" cx="116.968" cy="153.455" r="38.651"/>
	<circle class="st0" cx="113.413" cy="154.502" r="38.651"/>
	<circle class="st0" cx="109.858" cy="155.549" r="38.651"/>
	<circle class="st0" cx="106.303" cy="156.597" r="38.651"/>
	<circle class="st0" cx="102.748" cy="157.644" r="38.651"/>
	<circle class="st0" cx="99.192" cy="158.691" r="38.651"/>
	<circle class="st0" cx="95.637" cy="159.738" r="38.651"/>
	<circle class="st0" cx="92.082" cy="160.786" r="38.651"/>
	<circle class="st0" cx="88.527" cy="161.833" r="38.651"/>
	<circle class="st0" cx="84.972" cy="162.88" r="38.651"/>
	<circle class="st0" cx="81.417" cy="163.927" r="38.651"/>
	<circle class="st0" cx="77.862" cy="164.974" r="38.651"/>
	<circle class="st0" cx="74.307" cy="166.022" r="38.651"/>
	<circle class="st0" cx="70.752" cy="167.069" r="38.651"/>
	<circle class="st0" cx="67.197" cy="168.116" r="38.651"/>
	<circle class="st0" cx="63.642" cy="169.163" r="38.651"/>
	<circle class="st0" cx="60.087" cy="170.211" r="38.651"/>
	<circle class="st0" cx="56.532" cy="171.258" r="38.651"/>
	<circle class="st0" cx="52.977" cy="172.305" r="38.651"/>
	<circle class="st0" cx="49.422" cy="173.352" r="38.651"/>
	<circle class="st0" cx="45.867" cy="174.399" r="38.651"/>
	<circle class="st0" cx="42.312" cy="175.447" r="38.651"/>
	<circle class="st0" cx="38.757" cy="176.494" r="38.651"/>
	<circle class="st0" cx="41.179" cy="178.084" r="38.651"/>
	<circle class="st0" cx="43.602" cy="179.674" r="38.651"/>
	<circle class="st0" cx="46.025" cy="181.264" r="38.651"/>
	<circle class="st0" cx="48.447" cy="182.855" r="38.651"/>
	<circle class="st0" cx="50.87" cy="184.445" r="38.651"/>
	<circle class="st0" cx="53.292" cy="186.035" r="38.651"/>
	<circle class="st0" cx="55.715" cy="187.625" r="38.651"/>
	<circle class="st0" cx="58.137" cy="189.215" r="38.651"/>
	<circle class="st0" cx="60.56" cy="190.806" r="38.651"/>
	<circle class="st0" cx="62.982" cy="192.396" r="38.651"/>
	<circle class="st0" cx="65.405" cy="193.986" r="38.651"/>
	<circle class="st0" cx="67.828" cy="195.576" r="38.651"/>
	<circle class="st0" cx="70.25" cy="197.167" r="38.651"/>
	<circle class="st0" cx="72.673" cy="198.757" r="38.651"/>
	<circle class="st0" cx="75.095" cy="200.347" r="38.651"/>
	<circle class="st0" cx="77.518" cy="201.937" r="38.651"/>
	<circle class="st0" cx="79.94" cy="203.527" r="38.651"/>
	<circle class="st0" cx="82.363" cy="205.118" r="38.651"/>
	<circle class="st0" cx="84.785" cy="206.708" r="38.651"/>
	<circle class="st0" cx="87.208" cy="208.298" r="38.651"/>
	<circle class="st0" cx="89.631" cy="209.888" r="38.651"/>
	<circle class="st0" cx="92.053" cy="211.478" r="38.651"/>
	<circle class="st0" cx="94.476" cy="213.069" r="38.651"/>
	<circle class="st0" cx="96.898" cy="214.659" r="38.651"/>
	<circle class="st0" cx="99.321" cy="216.249" r="38.651"/>
	<circle class="st0" cx="101.743" cy="217.839" r="38.651"/>
	<circle class="st0" cx="104.166" cy="219.429" r="38.651"/>
	<circle class="st0" cx="106.588" cy="221.02" r="38.651"/>
	<circle class="st0" cx="109.011" cy="222.61" r="38.651"/>
	<circle class="st0" cx="111.434" cy="224.2" r="38.651"/>
	<circle class="st0" cx="113.856" cy="225.79" r="38.651"/>
	<circle class="st0" cx="116.279" cy="227.38" r="38.651"/>
	<circle class="st0" cx="118.701" cy="228.971" r="38.651"/>
	<circle class="st0" cx="121.124" cy="230.561" r="38.651"/>
	<circle class="st0" cx="123.546" cy="232.151" r="38.651"/>
	<circle class="st0" cx="125.969" cy="233.741" r="38.651"/>
	<circle class="st0" cx="128.391" cy="235.331" r="38.651"/>
	<circle class="st0" cx="130.814" cy="236.922" r="38.651"/>
	<circle class="st0" cx="133.237" cy="238.512" r="38.651"/>
	<circle class="st0" cx="135.659" cy="240.102" r="38.651"/>
	<circle class="st0" cx="138.082" cy="241.692" r="38.651"/>
	<circle class="st0" cx="140.504" cy="243.282" r="38.651"/>
	<circle class="st0" cx="142.927" cy="244.873" r="38.651"/>
	<circle class="st0" cx="145.349" cy="246.463" r="38.651"/>
	<circle class="st0" cx="147.772" cy="248.053" r="38.651"/>
	<circle class="st0" cx="150.194" cy="249.643" r="38.651"/>
	<circle class="st0" cx="152.617" cy="251.234" r="38.651"/>
	<circle class="st0" cx="155.04" cy="252.824" r="38.651"/>
	<circle class="st0" cx="157.462" cy="254.414" r="38.651"/>
	<circle class="st0" cx="159.885" cy="256.004" r="38.651"/>
	<circle class="st0" cx="162.307" cy="257.594" r="38.651"/>
</g>
</svg>
