<?xml version="1.0" encoding="utf-8"?>
<!-- Generator: Adobe Illustrator 22.0.0, SVG Export Plug-In . SVG Version: 6.00 Build 0)  -->
<svg version="1.1" id="Layer_1" xmlns="http://www.w3.org/2000/svg" xmlns:xlink="http://www.w3.org/1999/xlink" x="0px" y="0px"
	 viewBox="0 0 216.899 216.899" style="enable-background:new 0 0 216.899 216.899;" xml:space="preserve">
<style type="text/css">
	.st0{fill:none;stroke:#FFFFFF;stroke-width:0.1734;stroke-miterlimit:10;}
	.st1{fill:none;stroke:#FFFFFF;stroke-width:0.1757;stroke-miterlimit:10;}
	.st2{fill:none;stroke:#FFFFFF;stroke-width:0.1779;stroke-miterlimit:10;}
	.st3{fill:none;stroke:#FFFFFF;stroke-width:0.1802;stroke-miterlimit:10;}
	.st4{fill:none;stroke:#FFFFFF;stroke-width:0.1825;stroke-miterlimit:10;}
	.st5{fill:none;stroke:#FFFFFF;stroke-width:0.1848;stroke-miterlimit:10;}
	.st6{fill:none;stroke:#FFFFFF;stroke-width:0.1871;stroke-miterlimit:10;}
	.st7{fill:none;stroke:#FFFFFF;stroke-width:0.1893;stroke-miterlimit:10;}
	.st8{fill:none;stroke:#FFFFFF;stroke-width:0.1916;stroke-miterlimit:10;}
	.st9{fill:none;stroke:#FFFFFF;stroke-width:0.1939;stroke-miterlimit:10;}
	.st10{fill:none;stroke:#FFFFFF;stroke-width:0.1962;stroke-miterlimit:10;}
	.st11{fill:none;stroke:#FFFFFF;stroke-width:0.1985;stroke-miterlimit:10;}
	.st12{fill:none;stroke:#FFFFFF;stroke-width:0.2008;stroke-miterlimit:10;}
	.st13{fill:none;stroke:#FFFFFF;stroke-width:0.203;stroke-miterlimit:10;}
	.st14{fill:none;stroke:#FFFFFF;stroke-width:0.2053;stroke-miterlimit:10;}
	.st15{fill:none;stroke:#FFFFFF;stroke-width:0.2076;stroke-miterlimit:10;}
	.st16{fill:none;stroke:#FFFFFF;stroke-width:0.2099;stroke-miterlimit:10;}
	.st17{fill:none;stroke:#FFFFFF;stroke-width:0.2122;stroke-miterlimit:10;}
	.st18{fill:none;stroke:#FFFFFF;stroke-width:0.2144;stroke-miterlimit:10;}
	.st19{fill:none;stroke:#FFFFFF;stroke-width:0.2167;stroke-miterlimit:10;}
	.st20{fill:none;stroke:#FFFFFF;stroke-width:0.219;stroke-miterlimit:10;}
	.st21{fill:none;stroke:#FFFFFF;stroke-width:0.2213;stroke-miterlimit:10;}
	.st22{fill:none;stroke:#FFFFFF;stroke-width:0.2236;stroke-miterlimit:10;}
	.st23{fill:none;stroke:#FFFFFF;stroke-width:0.2259;stroke-miterlimit:10;}
	.st24{fill:none;stroke:#FFFFFF;stroke-width:0.2281;stroke-miterlimit:10;}
	.st25{fill:none;stroke:#FFFFFF;stroke-width:0.2304;stroke-miterlimit:10;}
	.st26{fill:none;stroke:#FFFFFF;stroke-width:0.2327;stroke-miterlimit:10;}
	.st27{fill:none;stroke:#FFFFFF;stroke-width:0.235;stroke-miterlimit:10;}
	.st28{fill:none;stroke:#FFFFFF;stroke-width:0.2373;stroke-miterlimit:10;}
	.st29{fill:none;stroke:#FFFFFF;stroke-width:0.2395;stroke-miterlimit:10;}
	.st30{fill:none;stroke:#FFFFFF;stroke-width:0.2418;stroke-miterlimit:10;}
	.st31{fill:none;stroke:#FFFFFF;stroke-width:0.2441;stroke-miterlimit:10;}
	.st32{fill:none;stroke:#FFFFFF;stroke-width:0.2464;stroke-miterlimit:10;}
	.st33{fill:none;stroke:#FFFFFF;stroke-width:0.2487;stroke-miterlimit:10;}
	.st34{fill:none;stroke:#FFFFFF;stroke-width:0.2509;stroke-miterlimit:10;}
	.st35{fill:none;stroke:#FFFFFF;stroke-width:0.2532;stroke-miterlimit:10;}
	.st36{fill:none;stroke:#FFFFFF;stroke-width:0.2555;stroke-miterlimit:10;}
	.st37{fill:none;stroke:#FFFFFF;stroke-width:0.2578;stroke-miterlimit:10;}
	.st38{fill:none;stroke:#FFFFFF;stroke-width:0.2601;stroke-miterlimit:10;}
	.st39{fill:none;stroke:#FFFFFF;stroke-width:0.2624;stroke-miterlimit:10;}
	.st40{fill:none;stroke:#FFFFFF;stroke-width:0.2646;stroke-miterlimit:10;}
	.st41{fill:none;stroke:#FFFFFF;stroke-width:0.2669;stroke-miterlimit:10;}
	.st42{fill:none;stroke:#FFFFFF;stroke-width:0.2692;stroke-miterlimit:10;}
	.st43{fill:none;stroke:#FFFFFF;stroke-width:0.2715;stroke-miterlimit:10;}
	.st44{fill:none;stroke:#FFFFFF;stroke-width:0.2738;stroke-miterlimit:10;}
	.st45{fill:none;stroke:#FFFFFF;stroke-width:0.276;stroke-miterlimit:10;}
	.st46{fill:none;stroke:#FFFFFF;stroke-width:0.2783;stroke-miterlimit:10;}
	.st47{fill:none;stroke:#FFFFFF;stroke-width:0.2806;stroke-miterlimit:10;}
	.st48{fill:none;stroke:#FFFFFF;stroke-width:0.2829;stroke-miterlimit:10;}
	.st49{fill:none;stroke:#FFFFFF;stroke-width:0.2852;stroke-miterlimit:10;}
	.st50{fill:none;stroke:#FFFFFF;stroke-width:0.2874;stroke-miterlimit:10;}
	.st51{fill:none;stroke:#FFFFFF;stroke-width:0.2897;stroke-miterlimit:10;}
	.st52{fill:none;stroke:#FFFFFF;stroke-width:0.292;stroke-miterlimit:10;}
	.st53{fill:none;stroke:#FFFFFF;stroke-width:0.2943;stroke-miterlimit:10;}
	.st54{fill:none;stroke:#FFFFFF;stroke-width:0.2966;stroke-miterlimit:10;}
	.st55{fill:none;stroke:#FFFFFF;stroke-width:0.2989;stroke-miterlimit:10;}
	.st56{fill:none;stroke:#FFFFFF;stroke-width:0.3011;stroke-miterlimit:10;}
	.st57{fill:none;stroke:#FFFFFF;stroke-width:0.3034;stroke-miterlimit:10;}
	.st58{fill:none;stroke:#FFFFFF;stroke-width:0.3057;stroke-miterlimit:10;}
	.st59{fill:none;stroke:#FFFFFF;stroke-width:0.308;stroke-miterlimit:10;}
	.st60{fill:none;stroke:#FFFFFF;stroke-width:0.3103;stroke-miterlimit:10;}
	.st61{fill:none;stroke:#FFFFFF;stroke-width:0.3125;stroke-miterlimit:10;}
	.st62{fill:none;stroke:#FFFFFF;stroke-width:0.3148;stroke-miterlimit:10;}
	.st63{fill:none;stroke:#FFFFFF;stroke-width:0.3171;stroke-miterlimit:10;}
	.st64{fill:none;stroke:#FFFFFF;stroke-width:0.3194;stroke-miterlimit:10;}
	.st65{fill:none;stroke:#FFFFFF;stroke-width:0.3217;stroke-miterlimit:10;}
	.st66{fill:none;stroke:#FFFFFF;stroke-width:0.3239;stroke-miterlimit:10;}
	.st67{fill:none;stroke:#FFFFFF;stroke-width:0.3262;stroke-miterlimit:10;}
	.st68{fill:none;stroke:#FFFFFF;stroke-width:0.3285;stroke-miterlimit:10;}
	.st69{fill:none;stroke:#FFFFFF;stroke-width:0.3308;stroke-miterlimit:10;}
	.st70{fill:none;stroke:#FFFFFF;stroke-width:0.3331;stroke-miterlimit:10;}
	.st71{fill:none;stroke:#FFFFFF;stroke-width:0.3354;stroke-miterlimit:10;}
	.st72{fill:none;stroke:#FFFFFF;stroke-width:0.3376;stroke-miterlimit:10;}
	.st73{fill:none;stroke:#FFFFFF;stroke-width:0.3399;stroke-miterlimit:10;}
	.st74{fill:none;stroke:#FFFFFF;stroke-width:0.3422;stroke-miterlimit:10;}
	.st75{fill:none;stroke:#FFFFFF;stroke-width:0.3445;stroke-miterlimit:10;}
	.st76{fill:none;stroke:#FFFFFF;stroke-width:0.3468;stroke-miterlimit:10;}
</style>
<g>
	<path class="st0" d="M202.942,216.812H13.957c-7.629,0-13.87-6.242-13.87-13.87V13.957c0-7.629,6.242-13.87,13.87-13.87h188.985
		c7.629,0,13.87,6.242,13.87,13.87v188.985C216.812,210.571,210.571,216.812,202.942,216.812z"/>
	<path class="st1" d="M202.107,215.415l-186.879,0.381c-7.544,0.015-13.728-6.144-13.744-13.688L1.104,15.228
		C1.089,7.685,7.248,1.5,14.792,1.485l186.879-0.381c7.544-0.015,13.728,6.144,13.744,13.688l0.381,186.879
		C215.811,209.214,209.651,215.399,202.107,215.415z"/>
	<path class="st2" d="M201.273,214.017L16.5,214.778c-7.459,0.031-13.586-6.047-13.617-13.505L2.121,16.5
		C2.09,9.041,8.168,2.913,15.627,2.882l184.773-0.761c7.459-0.031,13.586,6.047,13.617,13.505l0.761,184.773
		C214.809,207.858,208.731,213.986,201.273,214.017z"/>
	<path class="st3" d="M200.438,212.619l-182.667,1.142c-7.374,0.046-13.444-5.949-13.491-13.323L3.138,17.771
		C3.092,10.397,9.087,4.326,16.461,4.28l182.667-1.142c7.374-0.046,13.444,5.949,13.491,13.323l1.142,182.667
		C213.807,206.502,207.812,212.573,200.438,212.619z"/>
	<path class="st4" d="M199.603,211.221l-180.561,1.523c-7.289,0.061-13.302-5.852-13.364-13.14L4.155,19.042
		C4.094,11.753,10.007,5.74,17.296,5.678l180.561-1.523c7.289-0.061,13.302,5.852,13.364,13.14l1.523,180.561
		C212.805,205.146,206.892,211.159,199.603,211.221z"/>
	<path class="st5" d="M198.769,209.823l-178.455,1.903c-7.204,0.077-13.16-5.754-13.237-12.958L5.173,20.313
		C5.096,13.11,10.927,7.153,18.131,7.076l178.455-1.903c7.204-0.077,13.16,5.754,13.237,12.958l1.903,178.455
		C211.803,203.789,205.972,209.746,198.769,209.823z"/>
	<path class="st6" d="M197.934,208.425l-176.349,2.284c-7.119,0.092-13.018-5.657-13.111-12.775L6.19,21.585
		C6.098,14.466,11.847,8.566,18.965,8.474L195.314,6.19c7.119-0.092,13.018,5.657,13.111,12.775l2.284,176.349
		C210.801,202.433,205.053,208.333,197.934,208.425z"/>
	<path class="st7" d="M197.099,207.027l-174.243,2.665c-7.034,0.108-12.877-5.559-12.984-12.593L7.207,22.856
		C7.1,15.822,12.766,9.979,19.8,9.872l174.243-2.665c7.034-0.108,12.876,5.559,12.984,12.593l2.665,174.243
		C209.8,201.077,204.133,206.92,197.099,207.027z"/>
	<path class="st8" d="M196.264,205.629l-172.137,3.046c-6.949,0.123-12.735-5.462-12.857-12.41L8.224,24.127
		c-0.123-6.949,5.462-12.735,12.41-12.857l172.137-3.046c6.949-0.123,12.735,5.462,12.857,12.41l3.046,172.137
		C208.798,199.721,203.213,205.506,196.264,205.629z"/>
	<path class="st9" d="M195.43,204.231l-170.031,3.426c-6.864,0.138-12.593-5.364-12.731-12.228L9.241,25.398
		c-0.138-6.864,5.364-12.593,12.228-12.731l170.031-3.426c6.864-0.138,12.593,5.364,12.731,12.228l3.426,170.031
		C207.796,198.364,202.293,204.093,195.43,204.231z"/>
	<path class="st10" d="M194.595,202.834L26.67,206.64c-6.779,0.154-12.451-5.267-12.604-12.045L10.259,26.67
		c-0.154-6.779,5.267-12.451,12.045-12.604l167.925-3.807c6.779-0.154,12.451,5.267,12.604,12.045l3.807,167.925
		C206.794,197.008,201.374,202.68,194.595,202.834z"/>
	<path class="st11" d="M193.76,201.436l-165.819,4.188c-6.694,0.169-12.309-5.169-12.478-11.863L11.276,27.941
		c-0.169-6.694,5.169-12.309,11.863-12.478l165.819-4.188c6.694-0.169,12.309,5.169,12.478,11.863l4.188,165.819
		C205.792,195.652,200.454,201.267,193.76,201.436z"/>
	<path class="st12" d="M192.926,200.038l-163.713,4.568c-6.609,0.184-12.167-5.072-12.351-11.68L12.293,29.212
		c-0.184-6.609,5.072-12.167,11.68-12.351l163.713-4.568c6.609-0.184,12.167,5.072,12.351,11.68l4.568,163.713
		C204.79,194.295,199.534,199.853,192.926,200.038z"/>
	<path class="st13" d="M192.091,198.64l-161.607,4.949c-6.524,0.2-12.025-4.974-12.224-11.498L13.31,30.484
		c-0.2-6.524,4.974-12.025,11.498-12.224l161.607-4.949c6.524-0.2,12.025,4.974,12.224,11.498l4.949,161.607
		C203.789,192.939,198.615,198.44,192.091,198.64z"/>
	<path class="st14" d="M191.256,197.242l-159.502,5.33c-6.439,0.215-11.883-4.877-12.098-11.315l-5.33-159.502
		c-0.215-6.439,4.877-11.883,11.315-12.098l159.502-5.33c6.439-0.215,11.883,4.877,12.098,11.315l5.33,159.502
		C202.787,191.583,197.695,197.027,191.256,197.242z"/>
	<path class="st15" d="M190.422,195.844l-157.396,5.71c-6.354,0.23-11.741-4.779-11.971-11.133l-5.71-157.396
		c-0.231-6.354,4.779-11.741,11.133-11.971l157.396-5.71c6.354-0.231,11.741,4.779,11.971,11.133l5.71,157.396
		C201.785,190.227,196.775,195.614,190.422,195.844z"/>
	<path class="st16" d="M189.587,194.446l-155.29,6.091c-6.269,0.246-11.599-4.682-11.844-10.95l-6.091-155.29
		c-0.246-6.269,4.682-11.599,10.95-11.844l155.29-6.091c6.269-0.246,11.599,4.682,11.844,10.95l6.091,155.29
		C200.783,188.87,195.855,194.2,189.587,194.446z"/>
	<path class="st17" d="M188.752,193.048L35.569,199.52c-6.184,0.261-11.457-4.584-11.718-10.768L17.379,35.569
		c-0.261-6.184,4.584-11.457,10.768-11.718l153.184-6.472c6.184-0.261,11.457,4.584,11.718,10.768l6.472,153.184
		C199.781,187.514,194.936,192.787,188.752,193.048z"/>
	<path class="st18" d="M187.918,191.65L36.84,198.503c-6.099,0.277-11.315-4.487-11.591-10.585L18.396,36.84
		c-0.277-6.099,4.487-11.315,10.585-11.591l151.078-6.852c6.099-0.277,11.315,4.487,11.591,10.585l6.852,151.078
		C198.779,186.158,194.016,191.374,187.918,191.65z"/>
	<path class="st19" d="M187.083,190.253l-148.972,7.233c-6.014,0.292-11.173-4.389-11.465-10.403L19.413,38.111
		c-0.292-6.014,4.389-11.173,10.403-11.465l148.972-7.233c6.014-0.292,11.173,4.389,11.465,10.403l7.233,148.972
		C197.778,184.802,193.096,189.961,187.083,190.253z"/>
	<path class="st20" d="M186.248,188.855l-146.866,7.614c-5.929,0.307-11.031-4.292-11.338-10.22L20.431,39.382
		c-0.307-5.929,4.292-11.031,10.22-11.338l146.866-7.614c5.929-0.307,11.031,4.292,11.338,10.22l7.614,146.866
		C196.776,183.445,192.177,188.547,186.248,188.855z"/>
	<path class="st21" d="M185.413,187.457l-144.76,7.994c-5.844,0.323-10.889-4.194-11.211-10.038l-7.994-144.76
		c-0.323-5.844,4.194-10.889,10.038-11.211l144.76-7.994c5.844-0.323,10.889,4.194,11.211,10.038l7.994,144.76
		C195.774,182.089,191.257,187.134,185.413,187.457z"/>
	<path class="st22" d="M184.579,186.059l-142.654,8.375c-5.759,0.338-10.747-4.097-11.085-9.855L22.465,41.925
		c-0.338-5.759,4.097-10.747,9.855-11.085l142.654-8.375c5.759-0.338,10.747,4.097,11.085,9.855l8.375,142.654
		C194.772,180.733,190.337,185.721,184.579,186.059z"/>
	<path class="st23" d="M183.744,184.661l-140.548,8.756c-5.673,0.353-10.605-3.999-10.958-9.673L23.482,43.196
		c-0.353-5.673,3.999-10.605,9.673-10.958l140.548-8.756c5.673-0.353,10.605,3.999,10.958,9.673l8.756,140.548
		C193.77,179.376,189.418,184.308,183.744,184.661z"/>
	<path class="st24" d="M182.909,183.263L44.467,192.4c-5.588,0.369-10.463-3.902-10.831-9.49L24.499,44.467
		c-0.369-5.588,3.902-10.463,9.49-10.831l138.442-9.137c5.588-0.369,10.463,3.902,10.831,9.49l9.137,138.442
		C192.769,178.02,188.498,182.894,182.909,183.263z"/>
	<path class="st25" d="M182.075,181.865l-136.336,9.517c-5.503,0.384-10.321-3.804-10.705-9.308L25.517,45.739
		c-0.384-5.503,3.804-10.321,9.308-10.705l136.336-9.517c5.503-0.384,10.321,3.804,10.705,9.308l9.517,136.336
		C191.767,176.664,187.578,181.481,182.075,181.865z"/>
	<path class="st26" d="M181.24,180.467l-134.23,9.898c-5.418,0.4-10.179-3.707-10.578-9.125L26.534,47.01
		c-0.4-5.418,3.707-10.179,9.125-10.578l134.23-9.898c5.418-0.4,10.179,3.707,10.578,9.125l9.898,134.23
		C190.765,175.308,186.658,180.068,181.24,180.467z"/>
	<path class="st27" d="M180.405,179.07L48.281,189.348c-5.333,0.415-10.037-3.609-10.452-8.943L27.551,48.281
		c-0.415-5.333,3.609-10.037,8.943-10.452l132.124-10.279c5.333-0.415,10.037,3.609,10.452,8.943l10.279,132.124
		C189.763,173.951,185.739,178.655,180.405,179.07z"/>
	<path class="st28" d="M179.571,177.672L49.552,188.331c-5.248,0.43-9.895-3.512-10.325-8.76L28.568,49.552
		c-0.43-5.248,3.512-9.895,8.76-10.325l130.018-10.659c5.248-0.43,9.895,3.512,10.325,8.76l10.659,130.018
		C188.761,172.595,184.819,177.241,179.571,177.672z"/>
	<path class="st29" d="M178.736,176.274l-127.912,11.04c-5.163,0.446-9.753-3.414-10.198-8.578L29.585,50.824
		C29.14,45.66,33,41.071,38.163,40.625l127.912-11.04c5.163-0.446,9.753,3.414,10.198,8.578l11.04,127.912
		C187.759,171.239,183.899,175.828,178.736,176.274z"/>
	<path class="st30" d="M177.901,174.876L52.095,186.297c-5.078,0.461-9.611-3.317-10.072-8.395L30.603,52.095
		c-0.461-5.078,3.317-9.611,8.395-10.072l125.806-11.421c5.078-0.461,9.611,3.317,10.072,8.395l11.421,125.806
		C186.758,169.883,182.98,174.415,177.901,174.876z"/>
	<path class="st31" d="M177.067,173.478l-123.7,11.801c-4.993,0.476-9.469-3.219-9.945-8.213L31.62,53.366
		c-0.476-4.993,3.219-9.469,8.213-9.945l123.7-11.801c4.993-0.476,9.469,3.219,9.945,8.213l11.801,123.7
		C185.756,168.526,182.06,173.002,177.067,173.478z"/>
	<path class="st32" d="M176.232,172.08L54.638,184.262c-4.908,0.492-9.327-3.122-9.818-8.03L32.637,54.638
		c-0.492-4.908,3.122-9.327,8.03-9.818l121.594-12.182c4.908-0.492,9.327,3.122,9.818,8.03l12.182,121.594
		C184.754,167.17,181.14,171.588,176.232,172.08z"/>
	<path class="st33" d="M175.397,170.682L55.909,183.245c-4.823,0.507-9.185-3.024-9.692-7.848L33.654,55.909
		c-0.507-4.823,3.024-9.185,7.848-9.692L160.99,33.654c4.823-0.507,9.185,3.024,9.692,7.848l12.563,119.488
		C183.752,165.814,180.221,170.175,175.397,170.682z"/>
	<path class="st34" d="M174.562,169.284L57.18,182.228c-4.738,0.522-9.043-2.927-9.565-7.665L34.671,57.18
		c-0.522-4.738,2.927-9.043,7.665-9.565l117.382-12.943c4.738-0.522,9.043,2.927,9.565,7.665l12.943,117.382
		C182.75,164.457,179.301,168.762,174.562,169.284z"/>
	<path class="st35" d="M173.728,167.886L58.451,181.211c-4.653,0.538-8.901-2.829-9.439-7.483L35.689,58.451
		c-0.538-4.653,2.829-8.901,7.483-9.439l115.276-13.324c4.653-0.538,8.901,2.829,9.439,7.483l13.324,115.276
		C181.748,163.101,178.381,167.349,173.728,167.886z"/>
	<path class="st36" d="M172.893,166.489L59.723,180.193c-4.568,0.553-8.759-2.732-9.312-7.3L36.706,59.723
		c-0.553-4.568,2.732-8.759,7.3-9.312l113.171-13.705c4.568-0.553,8.759,2.732,9.312,7.3l13.705,113.171
		C180.747,161.745,177.461,165.935,172.893,166.489z"/>
	<path class="st37" d="M172.058,165.091L60.994,179.176c-4.483,0.569-8.617-2.634-9.185-7.118L37.723,60.994
		c-0.569-4.483,2.634-8.617,7.118-9.185l111.065-14.086c4.483-0.569,8.617,2.634,9.185,7.118l14.086,111.065
		C179.745,160.389,176.542,164.522,172.058,165.091z"/>
	<path class="st38" d="M171.224,163.693L62.265,178.159c-4.398,0.584-8.475-2.537-9.059-6.935L38.74,62.265
		c-0.584-4.398,2.537-8.475,6.935-9.059L154.634,38.74c4.398-0.584,8.475,2.537,9.059,6.935l14.466,108.959
		C178.743,159.032,175.622,163.109,171.224,163.693z"/>
	<path class="st39" d="M170.389,162.295L63.536,177.142c-4.313,0.599-8.333-2.439-8.932-6.753L39.757,63.536
		c-0.599-4.313,2.439-8.333,6.753-8.932l106.853-14.847c4.313-0.599,8.333,2.439,8.932,6.753l14.847,106.853
		C177.741,157.676,174.702,161.696,170.389,162.295z"/>
	<path class="st40" d="M169.554,160.897L64.808,176.125c-4.228,0.615-8.191-2.342-8.805-6.57L40.775,64.808
		c-0.615-4.228,2.342-8.191,6.57-8.805l104.747-15.228c4.228-0.615,8.191,2.342,8.805,6.57l15.228,104.747
		C176.739,156.32,173.783,160.282,169.554,160.897z"/>
	<path class="st41" d="M168.72,159.499L66.079,175.107c-4.143,0.63-8.049-2.244-8.679-6.388L41.792,66.079
		c-0.63-4.143,2.244-8.049,6.388-8.679L150.82,41.792c4.143-0.63,8.049,2.244,8.679,6.388l15.608,102.641
		C175.737,154.964,172.863,158.869,168.72,159.499z"/>
	<path class="st42" d="M167.885,158.101L67.35,174.09c-4.058,0.645-7.907-2.147-8.552-6.205L42.809,67.35
		c-0.645-4.058,2.147-7.907,6.205-8.552l100.535-15.989c4.058-0.645,7.907,2.147,8.552,6.205l15.989,100.535
		C174.736,153.607,171.943,157.456,167.885,158.101z"/>
	<path class="st43" d="M167.05,156.703l-98.429,16.37c-3.973,0.661-7.765-2.049-8.426-6.023l-16.37-98.429
		c-0.661-3.973,2.049-7.765,6.023-8.426l98.429-16.37c3.973-0.661,7.765,2.049,8.426,6.023l16.37,98.429
		C173.734,152.251,171.024,156.043,167.05,156.703z"/>
	<path class="st44" d="M166.216,155.305l-96.323,16.75c-3.888,0.676-7.623-1.952-8.299-5.84l-16.75-96.323
		c-0.676-3.888,1.952-7.623,5.84-8.299l96.323-16.75c3.888-0.676,7.623,1.952,8.299,5.84l16.75,96.323
		C172.732,150.895,170.104,154.629,166.216,155.305z"/>
	<path class="st45" d="M165.381,153.908l-94.217,17.131c-3.803,0.692-7.481-1.854-8.172-5.658L45.861,71.164
		c-0.692-3.803,1.854-7.481,5.658-8.172l94.217-17.131c3.803-0.692,7.481,1.854,8.172,5.658l17.131,94.217
		C171.73,149.538,169.184,153.216,165.381,153.908z"/>
	<path class="st46" d="M164.546,152.51l-92.111,17.512c-3.718,0.707-7.339-1.757-8.046-5.475L46.878,72.435
		c-0.707-3.718,1.757-7.339,5.475-8.046l92.111-17.512c3.718-0.707,7.339,1.757,8.046,5.475l17.512,92.111
		C170.728,148.182,168.264,151.803,164.546,152.51z"/>
	<path class="st47" d="M163.712,151.112l-90.005,17.892c-3.633,0.722-7.197-1.659-7.919-5.293L47.895,73.706
		c-0.722-3.633,1.659-7.197,5.293-7.919l90.005-17.892c3.633-0.722,7.197,1.659,7.919,5.293l17.892,90.005
		C169.726,146.826,167.345,150.389,163.712,151.112z"/>
	<path class="st48" d="M162.877,149.714l-87.899,18.273c-3.548,0.738-7.055-1.562-7.792-5.11L48.912,74.978
		c-0.738-3.548,1.562-7.055,5.11-7.792l87.899-18.273c3.548-0.738,7.055,1.562,7.792,5.11l18.273,87.899
		C168.725,145.47,166.425,148.976,162.877,149.714z"/>
	<path class="st49" d="M162.042,148.316L76.249,166.97c-3.463,0.753-6.913-1.464-7.666-4.928L49.929,76.249
		c-0.753-3.463,1.464-6.913,4.928-7.666l85.793-18.654c3.463-0.753,6.913,1.464,7.666,4.928l18.654,85.793
		C167.723,144.113,165.505,147.563,162.042,148.316z"/>
	<path class="st50" d="M161.207,146.918L77.52,165.953c-3.378,0.768-6.771-1.367-7.539-4.745L50.947,77.52
		c-0.768-3.378,1.367-6.771,4.745-7.539l83.687-19.034c3.378-0.768,6.771,1.367,7.539,4.745l19.034,83.687
		C166.721,142.757,164.586,146.15,161.207,146.918z"/>
	<path class="st51" d="M160.373,145.52l-81.581,19.415c-3.293,0.784-6.629-1.269-7.413-4.563L51.964,78.791
		c-0.784-3.293,1.269-6.629,4.563-7.413l81.581-19.415c3.293-0.784,6.629,1.269,7.413,4.563l19.415,81.581
		C165.719,141.401,163.666,144.736,160.373,145.52z"/>
	<path class="st52" d="M159.538,144.122l-79.475,19.796c-3.208,0.799-6.487-1.172-7.286-4.38L52.981,80.063
		c-0.799-3.208,1.172-6.487,4.38-7.286l79.475-19.796c3.208-0.799,6.487,1.172,7.286,4.38l19.796,79.475
		C164.717,140.045,162.746,143.323,159.538,144.122z"/>
	<path class="st53" d="M158.703,142.724l-77.369,20.177c-3.123,0.814-6.345-1.074-7.159-4.198L53.998,81.334
		c-0.814-3.123,1.074-6.345,4.198-7.159l77.369-20.177c3.123-0.814,6.345,1.074,7.159,4.198l20.177,77.369
		C163.715,138.688,161.827,141.91,158.703,142.724z"/>
	<path class="st54" d="M157.869,141.327l-75.263,20.557c-3.038,0.83-6.203-0.977-7.033-4.015L55.015,82.605
		c-0.83-3.038,0.977-6.203,4.015-7.033l75.263-20.557c3.038-0.83,6.203,0.977,7.033,4.015l20.557,75.263
		C162.714,137.332,160.907,140.497,157.869,141.327z"/>
	<path class="st55" d="M157.034,139.929l-73.157,20.938c-2.953,0.845-6.061-0.879-6.906-3.833L56.033,83.877
		c-0.845-2.953,0.879-6.061,3.833-6.906l73.157-20.938c2.953-0.845,6.061,0.879,6.906,3.833l20.938,73.157
		C161.712,135.976,159.987,139.083,157.034,139.929z"/>
	<path class="st56" d="M156.199,138.531l-71.051,21.319c-2.868,0.861-5.919-0.782-6.779-3.65L57.05,85.148
		c-0.861-2.868,0.782-5.919,3.65-6.779l71.051-21.319c2.868-0.861,5.919,0.782,6.779,3.65l21.319,71.051
		C160.71,134.619,159.067,137.67,156.199,138.531z"/>
	<path class="st57" d="M155.365,137.133l-68.946,21.699c-2.783,0.876-5.777-0.684-6.653-3.468L58.067,86.419
		c-0.876-2.783,0.684-5.777,3.468-6.653l68.946-21.699c2.783-0.876,5.777,0.684,6.653,3.468l21.699,68.946
		C159.708,133.263,158.148,136.257,155.365,137.133z"/>
	<path class="st58" d="M154.53,135.735l-66.84,22.08c-2.698,0.891-5.635-0.587-6.526-3.285l-22.08-66.84
		c-0.891-2.698,0.587-5.635,3.285-6.526l66.84-22.08c2.698-0.891,5.635,0.587,6.526,3.285l22.08,66.84
		C158.706,131.907,157.228,134.844,154.53,135.735z"/>
	<path class="st59" d="M153.695,134.337l-64.734,22.461c-2.613,0.907-5.493-0.49-6.4-3.103L60.101,88.962
		c-0.907-2.613,0.489-5.493,3.103-6.4l64.734-22.461c2.613-0.907,5.493,0.489,6.4,3.103l22.461,64.734
		C157.704,130.551,156.308,133.43,153.695,134.337z"/>
	<path class="st60" d="M152.861,132.939l-62.628,22.841c-2.528,0.922-5.351-0.392-6.273-2.92L61.119,90.233
		c-0.922-2.528,0.392-5.351,2.92-6.273l62.628-22.841c2.528-0.922,5.351,0.392,6.273,2.92l22.841,62.628
		C156.703,129.194,155.389,132.017,152.861,132.939z"/>
	<path class="st61" d="M152.026,131.541l-60.522,23.222c-2.443,0.937-5.209-0.295-6.146-2.738L62.136,91.504
		c-0.937-2.443,0.295-5.209,2.738-6.146l60.522-23.222c2.443-0.937,5.209,0.295,6.146,2.738l23.222,60.522
		C155.701,127.838,154.469,130.604,152.026,131.541z"/>
	<path class="st62" d="M151.191,130.143l-58.416,23.603c-2.358,0.953-5.067-0.197-6.02-2.555L63.153,92.775
		c-0.953-2.358,0.197-5.067,2.555-6.02l58.416-23.603c2.358-0.953,5.067,0.197,6.02,2.555l23.603,58.416
		C154.699,126.482,153.549,129.191,151.191,130.143z"/>
	<path class="st63" d="M150.356,128.746l-56.31,23.983c-2.273,0.968-4.925-0.1-5.893-2.373L64.17,94.047
		c-0.968-2.273,0.1-4.925,2.373-5.893l56.31-23.983c2.273-0.968,4.925,0.1,5.893,2.373l23.983,56.31
		C153.697,125.126,152.629,127.777,150.356,128.746z"/>
	<path class="st64" d="M149.522,127.348l-54.204,24.364c-2.188,0.984-4.783-0.002-5.766-2.19L65.187,95.318
		c-0.984-2.188,0.002-4.783,2.19-5.766l54.204-24.364c2.188-0.984,4.783,0.002,5.766,2.19l24.364,54.204
		C152.695,123.769,151.71,126.364,149.522,127.348z"/>
	<path class="st65" d="M148.687,125.95l-52.098,24.745c-2.103,0.999-4.641,0.095-5.64-2.008L66.205,96.589
		c-0.999-2.103-0.095-4.641,2.008-5.64l52.098-24.745c2.103-0.999,4.641-0.095,5.64,2.008l24.745,52.098
		C151.693,122.413,150.79,124.951,148.687,125.95z"/>
	<path class="st66" d="M147.852,124.552L97.86,149.677c-2.018,1.014-4.499,0.193-5.513-1.825L67.222,97.86
		c-1.014-2.018-0.193-4.499,1.825-5.513l49.992-25.126c2.018-1.014,4.499-0.193,5.513,1.825l25.126,49.992
		C150.692,121.057,149.87,123.538,147.852,124.552z"/>
	<path class="st67" d="M147.018,123.154L99.132,148.66c-1.933,1.03-4.357,0.29-5.387-1.643L68.239,99.132
		c-1.03-1.933-0.29-4.357,1.643-5.387l47.886-25.506c1.933-1.03,4.357-0.29,5.387,1.643l25.506,47.886
		C149.69,119.7,148.951,122.124,147.018,123.154z"/>
	<path class="st68" d="M146.183,121.756l-45.78,25.887c-1.848,1.045-4.215,0.388-5.26-1.46l-25.887-45.78
		c-1.045-1.848-0.388-4.215,1.46-5.26l45.78-25.887c1.848-1.045,4.215-0.388,5.26,1.46l25.887,45.78
		C148.688,118.344,148.031,120.711,146.183,121.756z"/>
	<path class="st69" d="M145.348,120.358l-43.674,26.268c-1.763,1.06-4.073,0.485-5.133-1.278l-26.268-43.674
		c-1.06-1.763-0.485-4.073,1.278-5.133l43.674-26.268c1.763-1.06,4.073-0.485,5.133,1.278l26.268,43.674
		C147.686,116.988,147.111,119.298,145.348,120.358z"/>
	<path class="st70" d="M144.514,118.96l-41.568,26.648c-1.678,1.076-3.931,0.583-5.007-1.095l-26.648-41.568
		c-1.076-1.678-0.583-3.931,1.095-5.007l41.568-26.648c1.678-1.076,3.931-0.583,5.007,1.095l26.648,41.568
		C146.684,115.632,146.192,117.885,144.514,118.96z"/>
	<path class="st71" d="M143.679,117.562l-39.462,27.029c-1.593,1.091-3.789,0.68-4.88-0.913l-27.029-39.462
		c-1.091-1.593-0.68-3.789,0.913-4.88l39.462-27.029c1.593-1.091,3.789-0.68,4.88,0.913l27.029,39.462
		C145.683,114.275,145.272,116.471,143.679,117.562z"/>
	<path class="st72" d="M142.844,116.165l-37.356,27.41c-1.508,1.106-3.647,0.778-4.753-0.73l-27.41-37.356
		c-1.106-1.508-0.778-3.647,0.73-4.753l37.356-27.41c1.508-1.106,3.647-0.778,4.753,0.73l27.41,37.356
		C144.681,112.919,144.352,115.058,142.844,116.165z"/>
	<path class="st73" d="M142.01,114.767l-35.25,27.79c-1.423,1.122-3.505,0.875-4.627-0.548l-27.79-35.25
		c-1.122-1.423-0.875-3.505,0.548-4.627l35.25-27.79c1.423-1.122,3.505-0.875,4.627,0.548l27.79,35.25
		C143.679,111.563,143.432,113.645,142.01,114.767z"/>
	<path class="st74" d="M141.175,113.369l-33.144,28.171c-1.338,1.137-3.363,0.973-4.5-0.365l-28.171-33.144
		c-1.137-1.338-0.973-3.363,0.365-4.5l33.144-28.171c1.338-1.137,3.363-0.973,4.5,0.365l28.171,33.144
		C142.677,110.207,142.513,112.232,141.175,113.369z"/>
	<path class="st75" d="M140.34,111.971l-31.038,28.552c-1.253,1.153-3.221,1.07-4.374-0.183l-28.552-31.038
		c-1.153-1.253-1.07-3.221,0.183-4.374l31.038-28.552c1.253-1.153,3.221-1.07,4.374,0.183l28.552,31.038
		C141.675,108.85,141.593,110.818,140.34,111.971z"/>
	<path class="st76" d="M139.505,110.573l-28.932,28.932c-1.168,1.168-3.079,1.168-4.247,0l-28.932-28.932
		c-1.168-1.168-1.168-3.079,0-4.247l28.932-28.932c1.168-1.168,3.079-1.168,4.247,0l28.932,28.932
		C140.673,107.494,140.673,109.405,139.505,110.573z"/>
</g>
</svg>
